<?xml version="1.0" encoding="UTF-8" standalone="no"?>
<!-- Created with Inkscape (http://www.inkscape.org/) -->


<svg
   version="1.1"
   id="svg1"
   width="502.32001"
   height="184.77467"
   viewBox="0 0 502.32001 184.77467"
   sodipodi:docname="figure1c_botex.pdf"
   xmlns:inkscape="http://www.inkscape.org/namespaces/inkscape"
   xmlns:sodipodi="http://sodipodi.sourceforge.net/DTD/sodipodi-0.dtd"
   xmlns="http://www.w3.org/2000/svg"
   xmlns:svg="http://www.w3.org/2000/svg">
  <defs
     id="defs1" />
  <sodipodi:namedview
     id="namedview1"
     pagecolor="#ffffff"
     bordercolor="#000000"
     borderopacity="0.25"
     inkscape:showpageshadow="2"
     inkscape:pageopacity="0.0"
     inkscape:pagecheckerboard="0"
     inkscape:deskcolor="#d1d1d1">
    <inkscape:page
       x="0"
       y="0"
       inkscape:label="1"
       id="page1"
       width="502.32001"
       height="184.77467"
       margin="0"
       bleed="0" />
  </sodipodi:namedview>
  <g
     id="g1"
     inkscape:groupmode="layer"
     inkscape:label="1">
    <path
       id="path1"
       d="M -28.22748,-19.92554 H 28.22749 V 19.92553 H -28.22748 Z"
       style="fill:none;stroke:#000000;stroke-width:0.3985;stroke-linecap:butt;stroke-linejoin:miter;stroke-miterlimit:10;stroke-dasharray:none;stroke-opacity:1"
       transform="matrix(1.3333333,0,0,-1.3333333,161.63067,129.93733)" />
    <path
       id="path2"
       d="m 2.4963438,-4.5822813 c -1.3007813,0 -2.20312505,0.9609375 -2.20312505,2.3320313 0,1.34765625 0.92578125,2.35546875 2.17968755,2.35546875 1.2539062,0 2.2148437,-1.06640625 2.2148437,-2.43750005 0,-1.3007812 -0.9257812,-2.25 -2.1914062,-2.25 z m -0.140625,0.28125 c 0.84375,0 1.4296875,0.9492188 1.4296875,2.3203125 0,1.12500005 -0.4453125,1.80468755 -1.1953125,1.80468755 -0.3867188,0 -0.7617188,-0.24609375 -0.9609375,-0.64453125 -0.28125,-0.515625 -0.4453125,-1.2070313 -0.4453125,-1.921875 0,-0.9492188 0.46875,-1.5585938 1.171875,-1.5585938 z m 5.15625,-1.875 v 4.9804688 c 0,0.84375 -0.1054688,0.9609375 -0.9375,1.0078125 v 0.1875 h 2.90625 v -0.1875 C 8.672125,-0.234625 8.5315,-0.36353125 8.5315,-1.0900938 v -5.0859375 h 0.5390625 c 1.1250005,0 1.3476565,0.1757813 1.5820315,1.2773438 h 0.234375 l -0.05859,-1.6992188 H 5.2150938 l -0.070312,1.6992188 H 5.390875 c 0.234375,-1.0898438 0.46875,-1.2773438 1.5820313,-1.2773438 z m 3.2783202,2.2851563 c 0.140625,-0.023437 0.234375,-0.035156 0.351563,-0.035156 0.246093,0 0.339843,0.1640625 0.339843,0.5976563 v 2.49609375 c 0,0.4921875 -0.07031,0.5625 -0.714843,0.6796875 V -2.5e-4 h 2.390625 v -0.15234375 c -0.679688,-0.0234375 -0.84375,-0.17578125 -0.84375,-0.75 V -3.140875 c 0,-0.3164063 0.433593,-0.8085938 0.703125,-0.8085938 0.05859,0 0.140625,0.046875 0.257812,0.140625 0.152344,0.140625 0.269531,0.1992188 0.398438,0.1992188 0.234375,0 0.386718,-0.1640625 0.386718,-0.4453125 0,-0.328125 -0.210937,-0.5273438 -0.550781,-0.5273438 -0.421875,0 -0.703125,0.234375 -1.195312,0.9375 v -0.9140625 l -0.04687,-0.023437 c -0.527344,0.2226563 -0.890625,0.3515625 -1.476563,0.5390625 z m 7.3125,2.2617187 c -0.480469,0.75000005 -0.914062,1.0429688 -1.546875,1.0429688 -0.5625,0 -0.996094,-0.29296875 -1.289062,-0.8554688 C 15.09107,-1.828375 15.020758,-2.1565 14.99732,-2.7541563 h 3.070313 c -0.08203,-0.65625 -0.175781,-0.9375 -0.421875,-1.265625 -0.304688,-0.3515625 -0.761719,-0.5625 -1.277344,-0.5625 -0.503906,0 -0.972656,0.1757813 -1.347656,0.515625 -0.46875,0.4101563 -0.738281,1.1132813 -0.738281,1.9335938 0,1.37109375 0.714843,2.23828125 1.863281,2.23828125 0.949219,0 1.699219,-0.59765625 2.109375,-1.66406255 z m -3.082031,-1.453125 C 15.137945,-3.8557188 15.46607,-4.219 16.075445,-4.219 c 0.609375,0 0.855469,0.2695312 0.984375,1.1367187 z m 7.505859,1.453125 c -0.480469,0.75000005 -0.914062,1.0429688 -1.546875,1.0429688 -0.5625,0 -0.996094,-0.29296875 -1.289062,-0.8554688 -0.175782,-0.3867187 -0.246094,-0.7148437 -0.269532,-1.3125 h 3.070313 c -0.08203,-0.65625 -0.175781,-0.9375 -0.421875,-1.265625 -0.304688,-0.3515625 -0.761719,-0.5625 -1.277344,-0.5625 -0.503906,0 -0.972656,0.1757813 -1.347656,0.515625 -0.46875,0.4101563 -0.738281,1.1132813 -0.738281,1.9335938 0,1.37109375 0.714843,2.23828125 1.863281,2.23828125 0.949219,0 1.699219,-0.59765625 2.109375,-1.66406255 z m -3.082031,-1.453125 C 19.561773,-3.8557188 19.889898,-4.219 20.499273,-4.219 c 0.609375,0 0.855469,0.2695312 0.984375,1.1367187 z m 0,0"
       style="fill:#000000;fill-opacity:1;fill-rule:nonzero;stroke:none"
       aria-label="oTree"
       transform="matrix(1.3333333,0,0,1.3333333,146.37467,133.12533)" />
    <path
       id="path3"
       d="M 85.31963,-19.92554 H 141.7746 V 19.92553 H 85.31963 Z"
       style="fill:none;stroke:#000000;stroke-width:0.3985;stroke-linecap:butt;stroke-linejoin:miter;stroke-miterlimit:10;stroke-dasharray:none;stroke-opacity:1"
       transform="matrix(1.3333333,0,0,-1.3333333,161.63067,129.93733)" />
    <path
       id="path4"
       d="m 9.2821484,-6.5979063 h -1.96875 v 0.1875 c 0.5039063,0.058594 0.6914063,0.1640625 0.6914063,0.4335938 0,0.2109375 -0.070312,0.46875 -0.1640625,0.75 l -1.2421875,3.375 -1.3125,-3.3984375 c -0.023437,-0.046875 -0.1171875,-0.2695313 -0.1289063,-0.2929688 -0.082031,-0.2109375 -0.140625,-0.3984375 -0.140625,-0.515625 0,-0.234375 0.2226563,-0.3398437 0.7617188,-0.3515625 v -0.1875 H 3.1180859 v 0.1875 c 0.5742188,0.011719 0.6679688,0.1054688 1.0078125,0.9023438 L 4.4540234,-4.68775 3.3876172,-1.8869688 1.9579297,-5.62525 c -0.070312,-0.1875 -0.1171875,-0.3515625 -0.1171875,-0.4570313 0,-0.2226562 0.140625,-0.2929687 0.65625,-0.328125 v -0.1875 H 0.04777344 v 0.1875 c 0.515625,0.058594 0.65625,0.234375 1.03124996,1.171875 l 1.921875,5.34375005 h 0.1523438 l 1.5351562,-4.20703125 1.59375,4.20703125 h 0.140625 C 7.2782422,-2.4963438 7.3719922,-2.765875 8.4618359,-5.6955625 c 0.1875,-0.515625 0.2929688,-0.609375 0.8203125,-0.7148438 z m 3.3925786,4.96875 c -0.480469,0.75000005 -0.914063,1.0429688 -1.546875,1.0429688 -0.5625,0 -0.996094,-0.29296875 -1.2890629,-0.8554688 C 9.6630078,-1.828375 9.5926953,-2.1565 9.5692578,-2.7541563 H 12.63957 c -0.08203,-0.65625 -0.175781,-0.9375 -0.421875,-1.265625 -0.304687,-0.3515625 -0.761718,-0.5625 -1.277343,-0.5625 -0.503907,0 -0.9726567,0.1757813 -1.3476567,0.515625 -0.46875,0.4101563 -0.7382812,1.1132813 -0.7382812,1.9335938 0,1.37109375 0.7148437,2.23828125 1.8632809,2.23828125 0.949219,0 1.699219,-0.59765625 2.109375,-1.66406255 z M 9.5926953,-3.0822813 C 9.7098828,-3.8557188 10.038008,-4.219 10.647383,-4.219 c 0.609375,0 0.855469,0.2695312 0.984375,1.1367187 z m 4.9628907,-3.703125 -0.04687,-0.023437 c -0.421875,0.1523438 -0.691406,0.234375 -1.160156,0.3632813 l -0.28125,0.082031 v 0.1523438 c 0.05859,0 0.09375,0 0.164062,0 0.398438,0 0.492188,0.082031 0.492188,0.5039062 v 5.1679688 c 0,0.3046875 0.84375,0.64453125 1.640625,0.64453125 1.3125,0 2.332031,-1.1015625 2.332031,-2.53125005 0,-1.21875 -0.761719,-2.15625 -1.757813,-2.15625 -0.609375,0 -1.183593,0.3632813 -1.382812,0.84375 z m 0,3.5742188 c 0,-0.3867188 0.46875,-0.7382813 0.984375,-0.7382813 0.785156,0 1.277344,0.7734375 1.277344,1.9921875 0,1.10156255 -0.480469,1.73437505 -1.289063,1.73437505 -0.527344,0 -0.972656,-0.22265625 -0.972656,-0.48046875 z m 3.550781,-0.703125 c 0.08203,-0.011719 0.152344,-0.011719 0.246094,-0.011719 0.339844,0 0.410156,0.1054688 0.410156,0.5742188 V 1.300531 c 0,0.5273438 -0.117187,0.6328125 -0.703125,0.6914063 V 2.156 h 2.414063 V 1.9802187 c -0.75,-0.011719 -0.878907,-0.1171875 -0.878907,-0.75 V -0.328375 c 0.351563,0.328125 0.585938,0.43359375 1.007813,0.43359375 1.171875,0 2.097656,-1.12500005 2.097656,-2.56640625 0,-1.2304688 -0.703125,-2.1210938 -1.664062,-2.1210938 -0.5625,0 -0.996094,0.2460938 -1.441407,0.7851563 v -0.7617188 l -0.05859,-0.023437 c -0.539063,0.2109375 -0.890625,0.3398438 -1.429688,0.5039063 z m 1.488281,0.5859375 c 0,-0.2929688 0.5625,-0.65625 1.019532,-0.65625 0.738281,0 1.21875,0.7617187 1.21875,1.9101562 0,1.1132813 -0.480469,1.85156255 -1.195313,1.85156255 -0.46875,0 -1.042969,-0.3515625 -1.042969,-0.65625 z m 7.804688,2.671875 c -0.175781,0.140625 -0.292969,0.1875 -0.445313,0.1875 -0.222656,0 -0.292968,-0.140625 -0.292968,-0.5742188 v -1.9453125 c 0,-0.515625 -0.04687,-0.8085937 -0.199219,-1.0429687 -0.222656,-0.3632813 -0.644531,-0.5507813 -1.242188,-0.5507813 -0.925781,0 -1.664062,0.4921875 -1.664062,1.1132813 0,0.234375 0.199219,0.4335937 0.421875,0.4335937 0.246094,0 0.445312,-0.1992187 0.445312,-0.421875 0,-0.035156 0,-0.09375 -0.01172,-0.1640625 -0.02344,-0.082031 -0.03516,-0.1640625 -0.03516,-0.234375 0,-0.2695312 0.316407,-0.4921875 0.714844,-0.4921875 0.492188,0 0.761719,0.2929688 0.761719,0.8320313 V -2.9065 c -1.535156,0.609375 -1.699219,0.6914062 -2.132813,1.078125 -0.222656,0.1992187 -0.363281,0.5273437 -0.363281,0.8671875 0,0.62109375 0.445313,1.06640625 1.054688,1.06640625 0.433593,0 0.84375,-0.2109375 1.453125,-0.73828125 0.04687,0.52734375 0.222656,0.73828125 0.632812,0.73828125 0.339844,0 0.550781,-0.12890625 0.902344,-0.50390625 z m -1.546875,-0.5742188 c 0,0.3164063 -0.04687,0.39843755 -0.257813,0.5273438 -0.246093,0.140625 -0.515625,0.22265625 -0.726562,0.22265625 -0.351563,0 -0.632813,-0.33984375 -0.632813,-0.76171875 v -0.046875 c 0,-0.5859375 0.410157,-0.9375 1.617188,-1.3828125 z m 6.251953,-2.6367187 v -0.3867188 h -0.773437 c -0.199219,0 -0.351563,-0.035156 -0.550782,-0.09375 l -0.210937,-0.082031 c -0.269531,-0.1054688 -0.539063,-0.1523438 -0.796875,-0.1523438 -0.925781,0 -1.664063,0.7148438 -1.664063,1.6289063 0,0.6210937 0.269532,0.9960937 0.925782,1.3242187 -0.1875,0.1875 -0.375,0.3515625 -0.433594,0.3984375 -0.328125,0.2929688 -0.457031,0.49218755 -0.457031,0.6914063 0,0.2109375 0.117187,0.328125 0.527343,0.52734375 -0.703125,0.515625 -0.972656,0.84375 -0.972656,1.21874995 0,0.5273438 0.773438,0.9609375 1.722656,0.9609375 0.75,0 1.523438,-0.2578125 2.039063,-0.6679687 0.375,-0.3164063 0.550781,-0.6328125 0.550781,-1.0078125 0,-0.62109375 -0.46875,-1.04296875 -1.207031,-1.06640625 L 29.51457,-0.6330625 C 28.987227,-0.6565 28.741133,-0.75025 28.741133,-0.90259375 c 0,-0.19921875 0.328125,-0.55078125 0.597656,-0.63281255 0.09375,0.011719 0.164063,0.023437 0.1875,0.023437 0.1875,0.011719 0.316406,0.023437 0.386719,0.023437 0.363281,0 0.761719,-0.140625 1.066406,-0.4101562 0.328125,-0.28125 0.480469,-0.6328125 0.480469,-1.125 0,-0.2929688 -0.04687,-0.5273438 -0.1875,-0.84375 z m -3.222656,3.890625 c 0.328125,0.0703125 1.125,0.12890625 1.617187,0.12890625 0.902344,0 1.230469,0.12890625 1.230469,0.48046875 0,0.5859375 -0.761719,0.9726562 -1.886719,0.9726562 -0.867187,0 -1.453125,-0.2929687 -1.453125,-0.72656245 0,-0.234375 0.07031,-0.36328125 0.492188,-0.85546875 z m 0.04687,-3.3867188 c 0,-0.5859375 0.28125,-0.9375 0.738281,-0.9375 0.304688,0 0.574219,0.1640625 0.726563,0.46875 0.175781,0.3398438 0.304687,0.8085938 0.304687,1.1953125 0,0.5507813 -0.292969,0.9023438 -0.75,0.9023438 -0.597656,0 -1.019531,-0.6445313 -1.019531,-1.6054688 z m 7.535156,1.734375 c -0.480469,0.75000005 -0.914062,1.0429688 -1.546875,1.0429688 -0.5625,0 -0.996094,-0.29296875 -1.289062,-0.8554688 C 33.45207,-1.828375 33.381758,-2.1565 33.35832,-2.7541563 h 3.070313 c -0.08203,-0.65625 -0.175781,-0.9375 -0.421875,-1.265625 -0.304688,-0.3515625 -0.761719,-0.5625 -1.277344,-0.5625 -0.503906,0 -0.972656,0.1757813 -1.347656,0.515625 -0.46875,0.4101563 -0.738281,1.1132813 -0.738281,1.9335938 0,1.37109375 0.714843,2.23828125 1.863281,2.23828125 0.949219,0 1.699219,-0.59765625 2.109375,-1.66406255 z m -3.082031,-1.453125 C 33.498945,-3.8557188 33.82707,-4.219 34.436445,-4.219 c 0.609375,0 0.855469,0.2695312 0.984375,1.1367187 z m 6.580078,-0.046875 -0.04687,-1.359375 h -0.105469 l -0.02344,0.023437 c -0.08203,0.070312 -0.09375,0.082031 -0.140625,0.082031 -0.05859,0 -0.152344,-0.023437 -0.269532,-0.070312 -0.210937,-0.082031 -0.433593,-0.1171875 -0.691406,-0.1171875 -0.785156,0 -1.359375,0.5039062 -1.359375,1.21875 0,0.5625 0.328125,0.9609375 1.171875,1.4414062 l 0.574219,0.328125 c 0.351562,0.1992188 0.515625,0.4335938 0.515625,0.75000005 0,0.43359375 -0.316406,0.71484375 -0.820313,0.71484375 -0.339843,0 -0.644531,-0.12890625 -0.84375,-0.3515625 -0.199218,-0.24609375 -0.292968,-0.48046875 -0.421875,-1.0429688 h -0.164062 v 1.54687505 h 0.128906 c 0.07031,-0.09375 0.117188,-0.1171875 0.234375,-0.1171875 0.08203,0 0.222656,0.0234375 0.457031,0.08203125 0.28125,0.05859375 0.550782,0.10546875 0.726563,0.10546875 0.761719,0 1.40625,-0.5859375 1.40625,-1.27734375 0,-0.5039063 -0.246094,-0.8320313 -0.84375,-1.1835938 L 38.379805,-3.00025 c -0.28125,-0.1523438 -0.433594,-0.4101563 -0.433594,-0.6796875 0,-0.3984375 0.304687,-0.6679688 0.773437,-0.6679688 0.5625,0 0.855469,0.328125 1.089844,1.21875 z m 0,0"
       style="fill:#000000;fill-opacity:1;fill-rule:nonzero;stroke:none"
       aria-label="Webpages"
       transform="matrix(1.3333333,0,0,1.3333333,285.89333,133.12533)" />
    <path
       id="path5"
       d="M 85.31963,48.67084 H 141.7746 V 88.52191 H 85.31963 Z"
       style="fill:none;stroke:#000000;stroke-width:0.3985;stroke-linecap:butt;stroke-linejoin:miter;stroke-miterlimit:10;stroke-dasharray:none;stroke-opacity:1"
       transform="matrix(1.3333333,0,0,-1.3333333,161.63067,129.93733)" />
    <path
       id="path6"
       d="m 1.5238281,-6.7861094 -0.046875,-0.023437 c -0.421875,0.1523438 -0.69140622,0.234375 -1.16015622,0.3632813 l -0.28125,0.082031 v 0.1523438 c 0.05859375,0 0.09375,0 0.1640625,0 0.3984375,0 0.4921875,0.082031 0.4921875,0.5039062 v 5.16796877 c 0,0.3046875 0.84375002,0.64453125 1.64062502,0.64453125 1.3125,0 2.3320312,-1.1015625 2.3320312,-2.53125002 0,-1.21875 -0.7617187,-2.15625 -1.7578125,-2.15625 -0.609375,0 -1.1835937,0.3632813 -1.3828125,0.84375 z m 0,3.5742188 c 0,-0.3867188 0.46875,-0.7382813 0.984375,-0.7382813 0.7851563,0 1.2773438,0.7734375 1.2773438,1.9921875 0,1.10156252 -0.4804688,1.73437502 -1.2890625,1.73437502 -0.5273438,0 -0.9726563,-0.22265625 -0.9726563,-0.48046875 z m 5.953125,-1.3710938 c -1.3007812,0 -2.203125,0.9609375 -2.203125,2.3320313 0,1.34765622 0.9257813,2.35546872 2.1796875,2.35546872 1.2539063,0 2.2148438,-1.06640625 2.2148438,-2.43750002 0,-1.3007812 -0.9257813,-2.25 -2.1914063,-2.25 z m -0.140625,0.28125 c 0.84375,0 1.4296875,0.9492188 1.4296875,2.3203125 0,1.12500002 -0.4453125,1.80468752 -1.1953125,1.80468752 -0.3867187,0 -0.7617187,-0.24609375 -0.9609375,-0.64453125 -0.28125,-0.51562497 -0.4453125,-1.20703127 -0.4453125,-1.92187497 0,-0.9492188 0.46875,-1.5585938 1.171875,-1.5585938 z m 5.1679689,-0.1875 h -1.007813 v -1.1484375 c 0,-0.1054687 -0.01172,-0.1289062 -0.07031,-0.1289062 -0.07031,0.082031 -0.128906,0.1757812 -0.199219,0.28125 -0.375,0.5390625 -0.808594,1.0195312 -0.960937,1.0664062 -0.117188,0.070312 -0.175782,0.1289063 -0.175782,0.1875 0,0.023437 0.01172,0.046875 0.03516,0.070312 h 0.539062 v 3 c 0,0.83203127 0.292969,1.26562502 0.878906,1.26562502 0.492188,0 0.867188,-0.24609375 1.195313,-0.76171875 l -0.128906,-0.10546875 c -0.210938,0.24609375 -0.375,0.33984375 -0.597657,0.33984375 -0.363281,0 -0.515625,-0.26953125 -0.515625,-0.89062497 v -2.8476563 h 1.007813 z m 4.294922,2.859375 c -0.480469,0.75000002 -0.914063,1.04296877 -1.546875,1.04296877 -0.5625,0 -0.996094,-0.29296875 -1.289063,-0.85546877 -0.175781,-0.3867187 -0.246093,-0.7148437 -0.269531,-1.3125 h 3.070313 c -0.08203,-0.65625 -0.175782,-0.9375 -0.421875,-1.265625 -0.304688,-0.3515625 -0.761719,-0.5625 -1.277344,-0.5625 -0.503906,0 -0.972656,0.1757813 -1.347656,0.515625 -0.46875,0.4101563 -0.738282,1.1132813 -0.738282,1.9335938 0,1.37109372 0.714844,2.23828122 1.863282,2.23828122 0.949218,0 1.699218,-0.59765625 2.109375,-1.66406252 z m -3.082031,-1.453125 c 0.117187,-0.7734375 0.445312,-1.1367187 1.054687,-1.1367187 0.609375,0 0.855469,0.2695312 0.984375,1.1367187 z m 6.055664,3.082031275 h 2.003906 V -0.15329688 c -0.304688,0 -0.503906,-0.15234375 -0.820313,-0.59765625 L 19.69082,-2.6962656 20.511133,-3.8915781 c 0.1875,-0.2695313 0.492187,-0.4335938 0.808594,-0.4453125 v -0.1523438 h -1.570313 v 0.1523438 c 0.292969,0.023437 0.398438,0.082031 0.398438,0.2226562 0,0.1171875 -0.117188,0.3398438 -0.375,0.6445313 -0.04687,0.058594 -0.164063,0.2460937 -0.292969,0.4453125 l -0.140625,-0.1992188 c -0.28125,-0.421875 -0.457031,-0.7617187 -0.457031,-0.890625 0,-0.140625 0.128906,-0.2109375 0.421875,-0.2226562 v -0.1523438 h -2.0625 v 0.1523438 h 0.09375 c 0.304687,0 0.457031,0.1289062 0.773437,0.5976562 l 0.925781,1.4414063 -1.125,1.64062497 c -0.304687,0.41015625 -0.398437,0.48046875 -0.738281,0.50390625 v 0.152343755 h 1.453125 V -0.15329688 c -0.28125,0 -0.398437,-0.046875 -0.398437,-0.17578125 0,-0.0585938 0.07031,-0.2109375 0.199218,-0.41015625 l 0.785157,-1.21875002 0.902343,1.39453127 c 0.04687,0.0585938 0.05859,0.1171875 0.05859,0.17578125 0,0.17578125 -0.07031,0.22265625 -0.398437,0.234375 z m 0,0"
       style="fill:#000000;fill-opacity:1;fill-rule:nonzero;stroke:none"
       aria-label="botex"
       transform="matrix(1.3333333,0,0,1.3333333,298.36667,41.665333)" />
    <path
       id="path7"
       d="M 3.63126,4.84177 -0.10559,-2.49214"
       style="fill:none;stroke:#000000;stroke-width:2.1518;stroke-linecap:butt;stroke-linejoin:miter;stroke-miterlimit:10;stroke-dasharray:none;stroke-opacity:1"
       transform="matrix(1.3333333,0,0,-1.3333333,435.88267,141.70133)" />
    <path
       id="path8"
       d="M 3.63126,4.84177 7.36812,-2.49214"
       style="fill:none;stroke:#000000;stroke-width:2.1518;stroke-linecap:butt;stroke-linejoin:miter;stroke-miterlimit:10;stroke-dasharray:none;stroke-opacity:1"
       transform="matrix(1.3333333,0,0,-1.3333333,435.88267,141.70133)" />
    <path
       id="path9"
       d="M 3.63126,4.84177 V 9.6836"
       style="fill:none;stroke:#000000;stroke-width:2.1518;stroke-linecap:butt;stroke-linejoin:miter;stroke-miterlimit:10;stroke-dasharray:none;stroke-opacity:1"
       transform="matrix(1.3333333,0,0,-1.3333333,435.88267,141.70133)" />
    <path
       id="path10"
       d="m 3.63126,9.6836 6.06071,2.44865"
       style="fill:none;stroke:#000000;stroke-width:2.1518;stroke-linecap:butt;stroke-linejoin:miter;stroke-miterlimit:10;stroke-dasharray:none;stroke-opacity:1"
       transform="matrix(1.3333333,0,0,-1.3333333,435.88267,141.70133)" />
    <path
       id="path11"
       d="m 3.63126,9.6836 -6.06028,2.44846"
       style="fill:none;stroke:#000000;stroke-width:2.1518;stroke-linecap:butt;stroke-linejoin:miter;stroke-miterlimit:10;stroke-dasharray:none;stroke-opacity:1"
       transform="matrix(1.3333333,0,0,-1.3333333,435.88267,141.70133)" />
    <path
       id="path12"
       d="m 3.63126,9.6836 v 3.14735"
       style="fill:none;stroke:#000000;stroke-width:2.1518;stroke-linecap:butt;stroke-linejoin:miter;stroke-miterlimit:10;stroke-dasharray:none;stroke-opacity:1"
       transform="matrix(1.3333333,0,0,-1.3333333,435.88267,141.70133)" />
    <path
       id="path13"
       d="m 7.98875,19.36768 c 0,2.4066 -1.95089,4.35749 -4.35749,4.35749 -2.40659,0 -4.35749,-1.95089 -4.35749,-4.35749 0,-2.40659 1.9509,-4.3575 4.35749,-4.3575 2.4066,0 4.35749,1.95091 4.35749,4.3575 z"
       style="fill:none;stroke:#000000;stroke-width:2.1518;stroke-linecap:butt;stroke-linejoin:miter;stroke-miterlimit:10;stroke-dasharray:none;stroke-opacity:1"
       transform="matrix(1.3333333,0,0,-1.3333333,435.88267,141.70133)" />
    <path
       id="path14"
       d="m 198.86674,48.67084 h 56.45497 v 39.85107 h -56.45497 z"
       style="fill:none;stroke:#000000;stroke-width:0.3985;stroke-linecap:butt;stroke-linejoin:miter;stroke-miterlimit:10;stroke-dasharray:none;stroke-opacity:1"
       transform="matrix(1.3333333,0,0,-1.3333333,161.63067,129.93733)" />
    <path
       id="path15"
       d="m 5.7078594,-1.7353281 c -0.1640625,0.375 -0.3046875,0.609375 -0.4570313,0.77343747 -0.3515625,0.3984375 -0.9023437,0.57421875 -1.7226562,0.57421875 H 2.8602031 c -0.7265625,0 -0.8554687,-0.0585938 -0.8554687,-0.41015625 V -5.5087656 c 0,-0.703125 0.140625,-0.84375 0.9257812,-0.9023438 v -0.1875 H 0.11801563 v 0.1875 c 0.73828125,0.070312 0.8671875,0.1992188 0.8671875,0.9023438 v 4.4179687 c 0,0.70312502 -0.140625,0.85546877 -0.8671875,0.90234377 V -9.53125e-4 H 5.4852031 l 0.46875,-1.734374975 z m 6.0849606,0 c -0.164062,0.375 -0.304687,0.609375 -0.457031,0.77343747 -0.351562,0.3984375 -0.902344,0.57421875 -1.7226562,0.57421875 H 8.9451641 c -0.7265625,0 -0.8554688,-0.0585938 -0.8554688,-0.41015625 V -5.5087656 c 0,-0.703125 0.140625,-0.84375 0.9257813,-0.9023438 v -0.1875 h -2.8125 v 0.1875 c 0.7382812,0.070312 0.8671875,0.1992188 0.8671875,0.9023438 v 4.4179687 c 0,0.70312502 -0.140625,0.85546877 -0.8671875,0.90234377 v 0.187500005 h 5.3671874 l 0.46875,-1.734374975 z m 7.095703,-3.9726563 v 4.5117188 c 0,0.83203122 -0.117187,0.96093747 -0.902343,1.00781247 v 0.187500005 h 2.789062 V -0.18845313 c -0.726562,-0.046875 -0.867187,-0.1875 -0.867187,-0.90234377 v -4.4179687 c 0,-0.703125 0.128906,-0.8320313 0.867187,-0.9023438 v -0.1875 h -1.992187 l -2.191407,5.0390625 -2.308593,-5.0390625 h -1.96875 v 0.1875 c 0.820312,0.058594 0.949218,0.1757813 0.949218,0.9023438 v 4.0429687 c 0,1.03125002 -0.140625,1.21875002 -0.972656,1.27734377 v 0.187500005 h 2.34375 V -0.18845313 c -0.761719,-0.046875 -0.9375,-0.26953125 -0.9375,-1.27734377 v -4.0195312 l 2.496094,5.484374975 h 0.140625 z m 0,0"
       style="fill:#000000;fill-opacity:1;fill-rule:nonzero;stroke:none"
       aria-label="LLM"
       transform="matrix(1.3333333,0,0,1.3333333,450.39733,41.665333)" />
    <path
       id="path16"
       d="M 3.63126,4.84177 -0.10559,-2.49214"
       style="fill:none;stroke:#000000;stroke-width:2.1518;stroke-linecap:butt;stroke-linejoin:miter;stroke-miterlimit:10;stroke-dasharray:none;stroke-opacity:1"
       transform="matrix(1.3333333,0,0,-1.3333333,29.088,141.70133)" />
    <path
       id="path17"
       d="M 3.63126,4.84177 7.36812,-2.49214"
       style="fill:none;stroke:#000000;stroke-width:2.1518;stroke-linecap:butt;stroke-linejoin:miter;stroke-miterlimit:10;stroke-dasharray:none;stroke-opacity:1"
       transform="matrix(1.3333333,0,0,-1.3333333,29.088,141.70133)" />
    <path
       id="path18"
       d="M 3.63126,4.84177 V 9.6836"
       style="fill:none;stroke:#000000;stroke-width:2.1518;stroke-linecap:butt;stroke-linejoin:miter;stroke-miterlimit:10;stroke-dasharray:none;stroke-opacity:1"
       transform="matrix(1.3333333,0,0,-1.3333333,29.088,141.70133)" />
    <path
       id="path19"
       d="m 3.63126,9.6836 6.06071,2.44865"
       style="fill:none;stroke:#000000;stroke-width:2.1518;stroke-linecap:butt;stroke-linejoin:miter;stroke-miterlimit:10;stroke-dasharray:none;stroke-opacity:1"
       transform="matrix(1.3333333,0,0,-1.3333333,29.088,141.70133)" />
    <path
       id="path20"
       d="m 3.63126,9.6836 -6.06028,2.44846"
       style="fill:none;stroke:#000000;stroke-width:2.1518;stroke-linecap:butt;stroke-linejoin:miter;stroke-miterlimit:10;stroke-dasharray:none;stroke-opacity:1"
       transform="matrix(1.3333333,0,0,-1.3333333,29.088,141.70133)" />
    <path
       id="path21"
       d="m 3.63126,9.6836 v 3.14735"
       style="fill:none;stroke:#000000;stroke-width:2.1518;stroke-linecap:butt;stroke-linejoin:miter;stroke-miterlimit:10;stroke-dasharray:none;stroke-opacity:1"
       transform="matrix(1.3333333,0,0,-1.3333333,29.088,141.70133)" />
    <path
       id="path22"
       d="m 7.98875,19.36768 c 0,2.4066 -1.95089,4.35749 -4.35749,4.35749 -2.40659,0 -4.35749,-1.95089 -4.35749,-4.35749 0,-2.40659 1.9509,-4.3575 4.35749,-4.3575 2.4066,0 4.35749,1.95091 4.35749,4.3575 z"
       style="fill:none;stroke:#000000;stroke-width:2.1518;stroke-linecap:butt;stroke-linejoin:miter;stroke-miterlimit:10;stroke-dasharray:none;stroke-opacity:1"
       transform="matrix(1.3333333,0,0,-1.3333333,29.088,141.70133)" />
    <path
       id="path23"
       d="m -85.12038,9.74884 52.1111,0.2883"
       style="fill:none;stroke:#000000;stroke-width:0.3985;stroke-linecap:butt;stroke-linejoin:miter;stroke-miterlimit:10;stroke-dasharray:none;stroke-opacity:1"
       transform="matrix(1.3333333,0,0,-1.3333333,161.63067,129.93733)" />
    <path
       id="path24"
       d="M 3.7613,0 C 3.2994,0.1127 1.26901,0.75136 0,1.44638 V -1.44638 C 1.26901,-0.75136 3.2994,-0.1127 3.7613,0 Z"
       style="fill:#000000;fill-opacity:1;fill-rule:nonzero;stroke:#000000;stroke-width:0.3985;stroke-linecap:butt;stroke-linejoin:miter;stroke-miterlimit:10;stroke-dasharray:none;stroke-opacity:1"
       transform="matrix(1.3332533,-0.00734667,-0.00734667,-1.3332533,117.61829,116.55448)" />
    <path
       id="path25"
       d="m 1.0311406,-1.0904141 c 0,0.72656254 -0.11718748,0.85546879 -0.86718748,0.90234379 V -5.703125e-4 H 2.9881719 c 1.1601562,0 2.203125,-0.3281249975 2.8242187,-0.8906249975 0.6445313,-0.58593749 1.0078125,-1.46484379 1.0078125,-2.43749999 0,-0.890625 -0.2929687,-1.6757813 -0.84375,-2.2148438 C 5.2967656,-6.2349453 4.2186406,-6.5982266 2.8475469,-6.5982266 H 0.16395312 v 0.1875 c 0.78515625,0.070312 0.86718748,0.1640625 0.86718748,0.9023438 z m 1.0195313,-4.7460937 c 0,-0.3046875 0.1054687,-0.3867188 0.515625,-0.3867188 0.8554687,0 1.5117187,0.1523438 1.9804687,0.4921875 0.7851563,0.5390625 1.1953125,1.3945313 1.1953125,2.4726563 0,1.171875 -0.4101562,2.015625 -1.21875,2.48437499 -0.5039062,0.28125 -1.0898437,0.41015625 -1.9570312,0.41015625 -0.3984375,0 -0.515625,-0.09375 -0.515625,-0.41015625 z m 9.2080081,4.2070312 c -0.480469,0.75000004 -0.914063,1.04296879 -1.5468753,1.04296879 -0.5625,0 -0.9960938,-0.29296875 -1.2890625,-0.85546879 -0.1757813,-0.3867187 -0.2460938,-0.7148437 -0.2695313,-1.3125 h 3.0703121 c -0.08203,-0.65625 -0.175781,-0.9375 -0.421875,-1.265625 -0.304687,-0.3515625 -0.761718,-0.5625 -1.2773433,-0.5625 -0.5039063,0 -0.9726563,0.1757813 -1.3476563,0.515625 -0.46875,0.4101563 -0.7382812,1.1132813 -0.7382812,1.9335938 0,1.37109374 0.7148437,2.23828124 1.8632812,2.23828124 0.9492186,0 1.6992186,-0.59765625 2.1093746,-1.66406254 z m -3.0820316,-1.453125 c 0.1171875,-0.7734375 0.4453125,-1.1367187 1.0546875,-1.1367187 0.609375,0 0.8554691,0.2695312 0.9843751,1.1367187 z m 6.5800786,-0.046875 -0.04687,-1.359375 h -0.105469 l -0.02344,0.023437 c -0.08203,0.070312 -0.09375,0.082031 -0.140625,0.082031 -0.05859,0 -0.152343,-0.023437 -0.269531,-0.070312 -0.210937,-0.082031 -0.433594,-0.1171875 -0.691406,-0.1171875 -0.785156,0 -1.359375,0.5039062 -1.359375,1.21875 0,0.5625 0.328125,0.9609375 1.171875,1.4414062 l 0.574219,0.328125 c 0.351562,0.1992188 0.515625,0.4335938 0.515625,0.75000004 0,0.43359375 -0.316407,0.71484375 -0.820313,0.71484375 -0.339844,0 -0.644531,-0.12890625 -0.84375,-0.3515625 -0.199219,-0.24609375 -0.292969,-0.48046875 -0.421875,-1.04296879 H 12.13173 v 1.54687504 h 0.128906 c 0.07031,-0.09375 0.117187,-0.1171875 0.234375,-0.1171875 0.08203,0 0.222656,0.0234375 0.457031,0.0820312475 0.28125,0.0585937525 0.550781,0.1054687525 0.726563,0.1054687525 0.761718,0 1.40625,-0.5859375 1.40625,-1.27734374 0,-0.5039063 -0.246094,-0.8320313 -0.84375,-1.1835938 l -1.066407,-0.6445312 c -0.28125,-0.1523438 -0.433593,-0.4101563 -0.433593,-0.6796875 0,-0.3984375 0.304687,-0.6679688 0.773437,-0.6679688 0.5625,0 0.855469,0.328125 1.089844,1.21875 z m 2.481445,-1.453125 -1.546875,0.5507813 v 0.140625 h 0.08203 c 0.117188,-0.023437 0.246094,-0.035156 0.339844,-0.035156 0.234375,0 0.328125,0.1640625 0.328125,0.5976563 v 2.3085937 c 0,0.71484379 -0.105469,0.83203129 -0.785156,0.86718754 v 0.1523437475 h 2.355468 V -0.15291406 c -0.65625,-0.046875 -0.738281,-0.15234375 -0.738281,-0.86718754 v -3.5273437 z m -0.46875,-2.2265625 c -0.269531,0 -0.503906,0.234375 -0.503906,0.515625 0,0.28125 0.222656,0.5039063 0.503906,0.5039063 0.28125,0 0.515625,-0.2226563 0.515625,-0.5039063 0,-0.28125 -0.234375,-0.515625 -0.515625,-0.515625 z m 6.178711,2.9414063 v -0.3867188 h -0.773438 c -0.199218,0 -0.351562,-0.035156 -0.550781,-0.09375 l -0.210937,-0.082031 c -0.269532,-0.1054688 -0.539063,-0.1523438 -0.796875,-0.1523438 -0.925782,0 -1.664063,0.7148438 -1.664063,1.6289063 0,0.6210937 0.269531,0.9960937 0.925781,1.3242187 -0.1875,0.1875 -0.375,0.3515625 -0.433593,0.3984375 -0.328125,0.29296879 -0.457032,0.49218754 -0.457032,0.69140629 0,0.2109375 0.117188,0.328125 0.527344,0.52734375 -0.703125,0.515625 -0.972656,0.84375 -0.972656,1.21874996 0,0.5273438 0.773437,0.9609375 1.722656,0.9609375 0.75,0 1.523438,-0.2578125 2.039063,-0.6679687 0.375,-0.3164063 0.550781,-0.63281251 0.550781,-1.00781251 0,-0.62109375 -0.46875,-1.04296875 -1.207031,-1.06640625 l -1.289063,-0.0585938 c -0.527344,-0.0234375 -0.773437,-0.1171875 -0.773437,-0.26953125 0,-0.19921869 0.328125,-0.55078119 0.597656,-0.63281249 0.09375,0.011719 0.164062,0.023437 0.1875,0.023437 0.1875,0.011719 0.316406,0.023437 0.386719,0.023437 0.363281,0 0.761718,-0.140625 1.066406,-0.4101562 0.328125,-0.28125 0.480469,-0.6328125 0.480469,-1.125 0,-0.2929689 -0.04687,-0.5273439 -0.1875,-0.84375 z m -3.222656,3.89062499 c 0.328125,0.0703125 1.125,0.12890625 1.617187,0.12890625 0.902344,0 1.230469,0.12890625 1.230469,0.48046875 0,0.58593751 -0.761719,0.97265621 -1.886719,0.97265621 -0.867187,0 -1.453125,-0.2929687 -1.453125,-0.72656246 0,-0.234375 0.07031,-0.36328125 0.492188,-0.85546875 z m 0.04687,-3.38671879 c 0,-0.5859375 0.28125,-0.9375 0.738281,-0.9375 0.304687,0 0.574219,0.1640625 0.726562,0.46875 0.175782,0.3398438 0.304688,0.8085938 0.304688,1.1953125 0,0.5507813 -0.292969,0.9023438 -0.75,0.9023438 -0.597656,0 -1.019531,-0.6445313 -1.019531,-1.6054688 z m 3.635742,-0.5976562 c 0.05859,-0.035156 0.152343,-0.046875 0.269531,-0.046875 0.269531,0 0.363281,0.1523437 0.363281,0.6445312 v 2.46093754 c 0,0.57421875 -0.105469,0.71484375 -0.621094,0.75 v 0.1523437475 h 2.121094 V -0.15291406 c -0.515625,-0.0351563 -0.667969,-0.15234375 -0.667969,-0.515625 V -3.4693203 c 0.480469,-0.4453125 0.703125,-0.5625 1.03125,-0.5625 0.492188,0 0.726563,0.3046875 0.726563,0.9609375 v 2.08593749 c 0,0.62109375 -0.128906,0.796875 -0.632813,0.83203125 v 0.1523437475 h 2.074219 V -0.15291406 c -0.480469,-0.046875 -0.609375,-0.1640625 -0.609375,-0.65625 V -3.0943203 c 0,-0.9257813 -0.433594,-1.4882813 -1.171875,-1.4882813 -0.457031,0 -0.761719,0.1640625 -1.441406,0.8085938 v -0.7851563 l -0.07031,-0.023437 c -0.492187,0.1757813 -0.832031,0.2929688 -1.371093,0.4453125 z m 0,0"
       style="fill:#000000;fill-opacity:1;fill-rule:nonzero;stroke:none"
       aria-label="Design"
       transform="matrix(1.3333333,0,0,1.3333333,67.117333,107.25467)" />
    <path
       id="path26"
       d="m -28.42671,-10.06238 -52.1111,0.2883"
       style="fill:none;stroke:#000000;stroke-width:0.3985;stroke-linecap:butt;stroke-linejoin:miter;stroke-miterlimit:10;stroke-dasharray:none;stroke-opacity:1"
       transform="matrix(1.3333333,0,0,-1.3333333,161.63067,129.93733)" />
    <path
       id="path27"
       d="M 3.7613,0 C 3.2994,0.1127 1.26901,0.75136 0,1.44638 V -1.44638 C 1.26901,-0.75136 3.2994,-0.1127 3.7613,0 Z"
       style="fill:#000000;fill-opacity:1;fill-rule:nonzero;stroke:#000000;stroke-width:0.3985;stroke-linecap:butt;stroke-linejoin:miter;stroke-miterlimit:10;stroke-dasharray:none;stroke-opacity:1"
       transform="matrix(-1.3332533,-0.00734667,-0.00734667,1.3332533,54.24692,142.96944)" />
    <path
       id="path28"
       d="m 1.0321484,-1.0897734 c 0,0.72656246 -0.11718746,0.85546871 -0.86718746,0.90234371 V 7.03125e-5 H 2.9891797 c 1.1601562,0 2.203125,-0.3281250025 2.8242187,-0.8906250025 0.6445313,-0.58593751 1.0078125,-1.46484371 1.0078125,-2.43750001 0,-0.890625 -0.2929687,-1.6757812 -0.84375,-2.2148437 C 5.2977734,-6.2343047 4.2196484,-6.5975859 2.8485547,-6.5975859 H 0.16496094 v 0.1875 c 0.78515625,0.070312 0.86718746,0.1640625 0.86718746,0.9023437 z m 1.0195313,-4.7460938 c 0,-0.3046875 0.1054687,-0.3867187 0.515625,-0.3867187 0.8554687,0 1.5117187,0.1523437 1.9804687,0.4921875 0.7851563,0.5390625 1.1953125,1.3945312 1.1953125,2.4726562 0,1.171875 -0.4101562,2.015625 -1.21875,2.48437501 -0.5039062,0.28125 -1.0898437,0.41015625 -1.9570312,0.41015625 -0.3984375,0 -0.515625,-0.09375 -0.515625,-0.41015625 z m 9.5478513,5.17968751 c -0.175781,0.140625 -0.292969,0.1875 -0.445312,0.1875 -0.222657,0 -0.292969,-0.140625 -0.292969,-0.57421871 v -1.9453125 c 0,-0.515625 -0.04687,-0.8085938 -0.199219,-1.0429688 -0.222656,-0.3632812 -0.644531,-0.5507812 -1.2421873,-0.5507812 -0.9257812,0 -1.6640625,0.4921875 -1.6640625,1.1132812 0,0.234375 0.1992188,0.4335938 0.421875,0.4335938 0.2460938,0 0.4453125,-0.1992188 0.4453125,-0.421875 0,-0.035156 0,-0.09375 -0.011719,-0.1640625 -0.023437,-0.082031 -0.035156,-0.1640625 -0.035156,-0.234375 0,-0.2695313 0.3164063,-0.4921875 0.7148438,-0.4921875 0.4921875,0 0.7617185,0.2929687 0.7617185,0.8320312 v 0.609375 c -1.535156,0.609375 -1.6992185,0.6914063 -2.1328123,1.078125 -0.2226562,0.1992188 -0.3632812,0.5273438 -0.3632812,0.86718751 0,0.62109375 0.4453125,1.06640625 1.0546875,1.06640625 0.4335937,0 0.84375,-0.2109375 1.453125,-0.73828125 0.04687,0.52734375 0.222656,0.73828125 0.632812,0.73828125 0.339844,0 0.550782,-0.12890625 0.902344,-0.50390625 z M 10.052656,-1.2303984 c 0,0.31640621 -0.04687,0.39843746 -0.2578123,0.52734371 -0.2460937,0.140625 -0.515625,0.22265625 -0.7265625,0.22265625 -0.3515625,0 -0.6328125,-0.33984375 -0.6328125,-0.76171876 v -0.046875 c 0,-0.5859375 0.4101563,-0.9375 1.6171873,-1.3828125 z m 4.107422,-3.2578125 h -1.007812 v -1.1484375 c 0,-0.1054688 -0.01172,-0.1289063 -0.07031,-0.1289063 -0.07031,0.082031 -0.128906,0.1757813 -0.199219,0.28125 -0.375,0.5390625 -0.808593,1.0195313 -0.960937,1.0664063 -0.117188,0.070312 -0.175781,0.1289062 -0.175781,0.1875 0,0.023437 0.01172,0.046875 0.03516,0.070312 h 0.539062 v 3 c 0,0.83203121 0.292969,1.26562496 0.878907,1.26562496 0.492187,0 0.867187,-0.24609375 1.195312,-0.76171875 l -0.128906,-0.10546875 c -0.210938,0.24609375 -0.375,0.33984375 -0.597656,0.33984375 -0.363282,0 -0.515625,-0.26953125 -0.515625,-0.89062501 v -2.8476562 h 1.007812 z m 4.631836,3.83203121 c -0.175781,0.140625 -0.292969,0.1875 -0.445312,0.1875 -0.222657,0 -0.292969,-0.140625 -0.292969,-0.57421871 v -1.9453125 c 0,-0.515625 -0.04687,-0.8085938 -0.199219,-1.0429688 -0.222656,-0.3632812 -0.644531,-0.5507812 -1.242187,-0.5507812 -0.925782,0 -1.664063,0.4921875 -1.664063,1.1132812 0,0.234375 0.199219,0.4335938 0.421875,0.4335938 0.246094,0 0.445313,-0.1992188 0.445313,-0.421875 0,-0.035156 0,-0.09375 -0.01172,-0.1640625 -0.02344,-0.082031 -0.03516,-0.1640625 -0.03516,-0.234375 0,-0.2695313 0.316406,-0.4921875 0.714843,-0.4921875 0.492188,0 0.761719,0.2929687 0.761719,0.8320312 v 0.609375 c -1.535156,0.609375 -1.699219,0.6914063 -2.132812,1.078125 -0.222657,0.1992188 -0.363282,0.5273438 -0.363282,0.86718751 0,0.62109375 0.445313,1.06640625 1.054688,1.06640625 0.433594,0 0.84375,-0.2109375 1.453125,-0.73828125 0.04687,0.52734375 0.222656,0.73828125 0.632812,0.73828125 0.339844,0 0.550782,-0.12890625 0.902344,-0.50390625 z M 17.245039,-1.2303984 c 0,0.31640621 -0.04687,0.39843746 -0.257812,0.52734371 -0.246094,0.140625 -0.515625,0.22265625 -0.726563,0.22265625 -0.351562,0 -0.632812,-0.33984375 -0.632812,-0.76171876 v -0.046875 c 0,-0.5859375 0.410156,-0.9375 1.617187,-1.3828125 z m 0,0"
       style="fill:#000000;fill-opacity:1;fill-rule:nonzero;stroke:none"
       aria-label="Data"
       transform="matrix(1.3333333,0,0,1.3333333,73.393333,158.996)" />
    <path
       id="path29"
       d="M 28.42671,10.06238 H 80.53752"
       style="fill:none;stroke:#000000;stroke-width:0.3985;stroke-linecap:butt;stroke-linejoin:miter;stroke-miterlimit:10;stroke-dasharray:none;stroke-opacity:1"
       transform="matrix(1.3333333,0,0,-1.3333333,161.63067,129.93733)" />
    <path
       id="path30"
       d="M 3.7613,0 C 3.2994,0.1127 1.26901,0.75136 0,1.44638 V -1.44638 C 1.26901,-0.75136 3.2994,-0.1127 3.7613,0 Z"
       style="fill:#000000;fill-opacity:1;fill-rule:nonzero;stroke:#000000;stroke-width:0.3985;stroke-linecap:butt;stroke-linejoin:miter;stroke-miterlimit:10;stroke-dasharray:none;stroke-opacity:1"
       transform="matrix(1.3333333,0,0,-1.3333333,269.01403,116.52083)" />
    <path
       id="path31"
       d="M 2.0859297,-3.5740625 V -5.5076563 C 2.0859297,-6.2225 2.1913984,-6.3396875 2.9531172,-6.41 V -6.5975 H 0.18749219 V -6.41 c 0.7734375,0.070312 0.87890621,0.1875 0.87890621,0.9023437 v 4.3125 c 0,0.8320313 -0.10546871,0.96093755 -0.87890621,1.00781255 v 0.1875 H 2.9531172 v -0.1875 c -0.7382813,-0.0585938 -0.8671875,-0.1875 -0.8671875,-0.90234375 v -2.0507813 h 3.0117187 v 1.9453125 c 0,0.8320313 -0.09375,0.96093755 -0.8789062,1.00781255 v 0.1875 h 2.7773437 v -0.1875 c -0.75,-0.0585938 -0.8789062,-0.1875 -0.8789062,-0.90234375 V -5.5076563 C 6.1171797,-6.2225 6.2226484,-6.3396875 6.9960859,-6.41 V -6.5975 H 4.2187422 V -6.41 c 0.7734375,0.070312 0.8789062,0.1875 0.8789062,0.9023437 v 1.9335938 z M 9.723625,-6.175625 v 4.9804687 c 0,0.84375005 -0.1054687,0.96093755 -0.9375,1.00781255 v 0.1875 h 2.90625 v -0.1875 C 10.883781,-0.23421875 10.743156,-0.363125 10.743156,-1.0896875 V -6.175625 h 0.539063 c 1.125,0 1.347656,0.1757812 1.582031,1.2773437 h 0.234375 L 13.040031,-6.5975 H 7.42675 L 7.356438,-4.8982813 H 7.6025318 C 7.8369068,-5.988125 8.0712818,-6.175625 9.184563,-6.175625 Z m 6.087891,0 v 4.9804687 c 0,0.84375005 -0.105469,0.96093755 -0.9375,1.00781255 v 0.1875 h 2.90625 v -0.1875 C 16.971672,-0.23421875 16.831047,-0.363125 16.831047,-1.0896875 V -6.175625 h 0.539062 c 1.125,0 1.347657,0.1757812 1.582032,1.2773437 h 0.234375 L 19.127922,-6.5975 h -5.613281 l -0.07031,1.6992187 h 0.246094 C 13.9248,-5.988125 14.159175,-6.175625 15.272456,-6.175625 Z m 5.572265,3.28125 c 0.257813,0.011719 0.421875,0.023437 0.679688,0.023437 0.785156,0 1.324219,-0.09375 1.746094,-0.3398438 0.597656,-0.3164062 0.960937,-0.9257812 0.960937,-1.5820312 0,-0.421875 -0.140625,-0.796875 -0.410156,-1.0898438 C 23.961906,-6.31625 23.094719,-6.5975 22.157219,-6.5975 h -2.625 V -6.41 c 0.738281,0.082031 0.832031,0.1875 0.832031,0.9023437 v 4.3125 c 0,0.8320313 -0.08203,0.93750005 -0.832031,1.00781255 v 0.1875 h 2.789062 v -0.1875 C 21.524406,-0.2225 21.383781,-0.363125 21.383781,-1.0896875 Z m 0,-2.9882813 c 0,-0.2695312 0.07031,-0.3398437 0.339844,-0.3398437 1.335938,0 1.957031,0.46875 1.957031,1.4882812 0,0.9726563 -0.585937,1.4648438 -1.734375,1.4648438 -0.199218,0 -0.339843,-0.011719 -0.5625,-0.023437 z m 0,0"
       style="fill:#000000;fill-opacity:1;fill-rule:nonzero;stroke:none"
       aria-label="HTTP"
       transform="matrix(1.3333333,0,0,1.3333333,220.72267,107.04667)" />
    <path
       id="path32"
       d="M 85.12038,-10.06238 H 33.00957"
       style="fill:none;stroke:#000000;stroke-width:0.3985;stroke-linecap:butt;stroke-linejoin:miter;stroke-miterlimit:10;stroke-dasharray:none;stroke-opacity:1"
       transform="matrix(1.3333333,0,0,-1.3333333,161.63067,129.93733)" />
    <path
       id="path33"
       d="M 3.7613,0 C 3.2994,0.1127 1.26901,0.75136 0,1.44638 V -1.44638 C 1.26901,-0.75136 3.2994,-0.1127 3.7613,0 Z"
       style="fill:#000000;fill-opacity:1;fill-rule:nonzero;stroke:#000000;stroke-width:0.3985;stroke-linecap:butt;stroke-linejoin:miter;stroke-miterlimit:10;stroke-dasharray:none;stroke-opacity:1"
       transform="matrix(-1.3333333,0,0,1.3333333,205.64343,143.35384)" />
    <path
       id="path34"
       d="m 6.5638203,-0.18622656 c -0.375,-0.0351563 -0.5742187,-0.12890625 -0.8671875,-0.46875 L 3.6458516,-3.1745078 c 0.6679687,-0.1289063 0.9726562,-0.2460938 1.3007812,-0.515625 0.3164063,-0.2578125 0.5039063,-0.6796875 0.5039063,-1.1484375 0,-0.4335938 -0.1289063,-0.796875 -0.3867188,-1.0898438 -0.375,-0.4101562 -1.2070312,-0.6679687 -2.1445312,-0.6679687 H 0.16538281 v 0.1875 c 0.75,0.082031 0.85546879,0.1992187 0.85546879,0.9023437 v 4.3125 c 0,0.83203129 -0.10546879,0.94921879 -0.85546879,1.00781254 v 0.1875 H 2.9310078 v -0.1875 C 2.1575703,-0.23310156 2.0286641,-0.36200781 2.0286641,-1.0885703 v -1.9570313 l 0.5625,-0.023437 2.3671875,3.07031254 H 6.5638203 Z M 2.0286641,-5.8698203 c 0,-0.2695313 0.1171875,-0.3515625 0.515625,-0.3515625 1.2421875,0 1.8164062,0.421875 1.8164062,1.359375 0,0.5039062 -0.2109375,0.9140625 -0.5625,1.1132812 -0.4570312,0.2578125 -0.8085937,0.3164063 -1.7695312,0.328125 z m 8.6835939,4.2421875 c -0.480469,0.74999999 -0.9140627,1.04296874 -1.5468752,1.04296874 -0.5625,0 -0.9960937,-0.29296875 -1.2890625,-0.85546874 -0.1757812,-0.3867188 -0.2460937,-0.7148438 -0.2695312,-1.3125 h 3.0703129 c -0.08203,-0.65625 -0.175782,-0.9375 -0.421875,-1.265625 -0.3046879,-0.3515625 -0.7617192,-0.5625 -1.2773442,-0.5625 -0.5039062,0 -0.9726562,0.1757812 -1.3476562,0.515625 -0.46875,0.4101562 -0.7382813,1.1132812 -0.7382813,1.9335937 0,1.37109379 0.7148438,2.23828129 1.8632813,2.23828129 0.9492187,0 1.6992184,-0.59765625 2.1093754,-1.66406249 z m -3.0820314,-1.453125 c 0.1171875,-0.7734375 0.4453125,-1.1367188 1.0546875,-1.1367188 0.609375,0 0.8554687,0.2695313 0.984375,1.1367188 z m 6.5800784,-0.046875 -0.04687,-1.359375 h -0.105469 l -0.02344,0.023437 c -0.08203,0.070312 -0.09375,0.082031 -0.140625,0.082031 -0.05859,0 -0.152343,-0.023437 -0.269531,-0.070312 -0.210937,-0.082031 -0.433594,-0.1171875 -0.691406,-0.1171875 -0.785156,0 -1.359375,0.5039063 -1.359375,1.21875 0,0.5625 0.328125,0.9609375 1.171875,1.4414063 l 0.574219,0.328125 c 0.351562,0.1992187 0.515625,0.4335937 0.515625,0.74999999 0,0.43359375 -0.316407,0.71484375 -0.820313,0.71484375 -0.339844,0 -0.644531,-0.12890625 -0.84375,-0.3515625 -0.199219,-0.24609375 -0.292969,-0.48046875 -0.421875,-1.04296874 h -0.164062 v 1.54687499 h 0.128906 c 0.07031,-0.09375 0.117187,-0.1171875 0.234375,-0.1171875 0.08203,0 0.222656,0.0234375 0.457031,0.08203125 0.28125,0.05859375 0.550781,0.10546875 0.726563,0.10546875 0.761718,0 1.40625,-0.5859375 1.40625,-1.27734379 0,-0.5039062 -0.246094,-0.8320312 -0.84375,-1.1835937 l -1.066407,-0.6445313 c -0.28125,-0.1523437 -0.433593,-0.4101562 -0.433593,-0.6796875 0,-0.3984375 0.304687,-0.6679687 0.773437,-0.6679687 0.5625,0 0.855469,0.328125 1.089844,1.21875 z m 0.826172,-0.7851563 c 0.08203,-0.011719 0.152343,-0.011719 0.246093,-0.011719 0.339844,0 0.410157,0.1054687 0.410157,0.5742187 v 4.6523438 c 0,0.5273437 -0.117188,0.6328125 -0.703125,0.6914062 v 0.1640625 h 2.414062 V 1.9817422 c -0.75,-0.011719 -0.878906,-0.1171875 -0.878906,-0.75 v -1.55859376 c 0.351562,0.328125 0.585937,0.43359375 1.007812,0.43359375 1.171875,0 2.097657,-1.12499999 2.097657,-2.56640629 0,-1.2304687 -0.703125,-2.1210937 -1.664063,-2.1210937 -0.5625,0 -0.996094,0.2460937 -1.441406,0.7851562 v -0.7617187 l -0.05859,-0.023437 c -0.539062,0.2109375 -0.890625,0.3398437 -1.429687,0.5039062 z m 1.488281,0.5859375 c 0,-0.2929687 0.5625,-0.65625 1.019531,-0.65625 0.738281,0 1.21875,0.7617188 1.21875,1.9101563 0,1.11328124 -0.480469,1.85156249 -1.195312,1.85156249 -0.46875,0 -1.042969,-0.3515625 -1.042969,-0.65625 z m 5.897461,-1.2539062 c -1.300781,0 -2.203125,0.9609375 -2.203125,2.3320312 0,1.34765629 0.925781,2.35546879 2.179687,2.35546879 1.253907,0 2.214844,-1.06640625 2.214844,-2.43749999 0,-1.3007813 -0.925781,-2.25 -2.191406,-2.25 z m -0.140625,0.28125 c 0.84375,0 1.429687,0.9492187 1.429687,2.3203125 0,1.12499999 -0.445312,1.80468749 -1.195312,1.80468749 -0.386719,0 -0.761719,-0.24609375 -0.960938,-0.64453125 -0.28125,-0.51562504 -0.445312,-1.20703124 -0.445312,-1.92187504 0,-0.9492187 0.46875,-1.5585937 1.171875,-1.5585937 z m 2.789062,0.3398437 c 0.05859,-0.035156 0.152344,-0.046875 0.269532,-0.046875 0.269531,0 0.363281,0.1523438 0.363281,0.6445313 v 2.46093749 c 0,0.57421875 -0.105469,0.71484375 -0.621094,0.75 v 0.15234375 h 2.121094 V -0.15107031 C 26.687844,-0.18622656 26.5355,-0.30341406 26.5355,-0.66669531 V -3.4674766 c 0.480469,-0.4453125 0.703125,-0.5625 1.03125,-0.5625 0.492188,0 0.726563,0.3046875 0.726563,0.9609375 v 2.08593754 c 0,0.62109375 -0.128907,0.796875 -0.632813,0.83203125 v 0.15234375 h 2.074219 v -0.15234375 c -0.480469,-0.046875 -0.609375,-0.1640625 -0.609375,-0.65625 V -3.0924766 c 0,-0.9257812 -0.433594,-1.4882812 -1.171875,-1.4882812 -0.457031,0 -0.761719,0.1640625 -1.441406,0.8085937 v -0.7851562 l -0.07031,-0.023437 c -0.492187,0.1757812 -0.832031,0.2929687 -1.371094,0.4453125 z m 7.957032,0.8320313 -0.04687,-1.359375 h -0.105469 l -0.02344,0.023437 c -0.08203,0.070312 -0.09375,0.082031 -0.140625,0.082031 -0.05859,0 -0.152343,-0.023437 -0.269531,-0.070312 -0.210937,-0.082031 -0.433594,-0.1171875 -0.691406,-0.1171875 -0.785156,0 -1.359375,0.5039063 -1.359375,1.21875 0,0.5625 0.328125,0.9609375 1.171875,1.4414063 l 0.574219,0.328125 c 0.351562,0.1992187 0.515625,0.4335937 0.515625,0.74999999 0,0.43359375 -0.316407,0.71484375 -0.820313,0.71484375 -0.339844,0 -0.644531,-0.12890625 -0.84375,-0.3515625 -0.199219,-0.24609375 -0.292969,-0.48046875 -0.421875,-1.04296874 h -0.164062 v 1.54687499 h 0.128906 c 0.07031,-0.09375 0.117187,-0.1171875 0.234375,-0.1171875 0.08203,0 0.222656,0.0234375 0.457031,0.08203125 0.28125,0.05859375 0.550781,0.10546875 0.726563,0.10546875 0.761718,0 1.40625,-0.5859375 1.40625,-1.27734379 0,-0.5039062 -0.246094,-0.8320312 -0.84375,-1.1835937 l -1.066407,-0.6445313 c -0.28125,-0.1523437 -0.433593,-0.4101562 -0.433593,-0.6796875 0,-0.3984375 0.304687,-0.6679687 0.773437,-0.6679687 0.5625,0 0.855469,0.328125 1.089844,1.21875 z m 4.801757,1.5 c -0.480468,0.74999999 -0.914062,1.04296874 -1.546875,1.04296874 -0.5625,0 -0.996093,-0.29296875 -1.289062,-0.85546874 -0.175781,-0.3867188 -0.246094,-0.7148438 -0.269531,-1.3125 h 3.070312 c -0.08203,-0.65625 -0.175781,-0.9375 -0.421875,-1.265625 -0.304687,-0.3515625 -0.761719,-0.5625 -1.277344,-0.5625 -0.503906,0 -0.972656,0.1757812 -1.347656,0.515625 -0.46875,0.4101562 -0.738281,1.1132812 -0.738281,1.9335937 0,1.37109379 0.714844,2.23828129 1.863281,2.23828129 0.949219,0 1.699219,-0.59765625 2.109375,-1.66406249 z m -3.082031,-1.453125 c 0.117188,-0.7734375 0.445313,-1.1367188 1.054688,-1.1367188 0.609375,0 0.855468,0.2695313 0.984375,1.1367188 z m 0,0"
       style="fill:#000000;fill-opacity:1;fill-rule:nonzero;stroke:none"
       aria-label="Response"
       transform="matrix(1.3333333,0,0,1.3333333,211.86933,159.20533)" />
    <path
       id="path35"
       d="M 194.08464,0 H 146.5567"
       style="fill:none;stroke:#000000;stroke-width:0.3985;stroke-linecap:butt;stroke-linejoin:miter;stroke-miterlimit:10;stroke-dasharray:none;stroke-opacity:1"
       transform="matrix(1.3333333,0,0,-1.3333333,161.63067,129.93733)" />
    <path
       id="path36"
       d="M 3.7613,0 C 3.2994,0.1127 1.26901,0.75136 0,1.44638 V -1.44638 C 1.26901,-0.75136 3.2994,-0.1127 3.7613,0 Z"
       style="fill:#000000;fill-opacity:1;fill-rule:nonzero;stroke:#000000;stroke-width:0.3985;stroke-linecap:butt;stroke-linejoin:miter;stroke-miterlimit:10;stroke-dasharray:none;stroke-opacity:1"
       transform="matrix(1.3333333,0,0,-1.3333333,420.41019,129.93733)" />
    <path
       id="path37"
       d="M 3.7613,0 C 3.2994,0.1127 1.26901,0.75136 0,1.44638 V -1.44638 C 1.26901,-0.75136 3.2994,-0.1127 3.7613,0 Z"
       style="fill:#000000;fill-opacity:1;fill-rule:nonzero;stroke:#000000;stroke-width:0.3985;stroke-linecap:butt;stroke-linejoin:miter;stroke-miterlimit:10;stroke-dasharray:none;stroke-opacity:1"
       transform="matrix(-1.3333333,0,0,1.3333333,357.0396,129.93733)" />
    <path
       id="path38"
       d="M 99.33372,20.12477 V 43.88875"
       style="fill:none;stroke:#000000;stroke-width:0.3985;stroke-linecap:butt;stroke-linejoin:miter;stroke-miterlimit:10;stroke-dasharray:none;stroke-opacity:1"
       transform="matrix(1.3333333,0,0,-1.3333333,161.63067,129.93733)" />
    <path
       id="path39"
       d="M 3.7613,0 C 3.2994,0.1127 1.26901,0.75136 0,1.44638 V -1.44638 C 1.26901,-0.75136 3.2994,-0.1127 3.7613,0 Z"
       style="fill:#000000;fill-opacity:1;fill-rule:nonzero;stroke:#000000;stroke-width:0.3985;stroke-linecap:butt;stroke-linejoin:miter;stroke-miterlimit:10;stroke-dasharray:none;stroke-opacity:1"
       transform="matrix(0,-1.3333333,-1.3333333,0,294.07563,71.419)" />
    <path
       id="path40"
       d="M 4.4519063,-6.7383828 H 4.2409688 c -0.035156,0.234375 -0.1523438,0.3398437 -0.3164063,0.3398437 -0.1054687,0 -0.2695312,-0.035156 -0.4335937,-0.1171875 -0.375,-0.140625 -0.7382813,-0.2226562 -1.0664063,-0.2226562 -0.421875,0 -0.8671875,0.1757812 -1.1953125,0.4570312 -0.33984375,0.3164063 -0.52734375,0.7382813 -0.52734375,1.2539063 0,0.796875 0.44531255,1.3476562 1.55859375,1.9335937 0.7148438,0.3867188 1.2304688,0.796875 1.4882813,1.171875 0.082031,0.1289063 0.140625,0.3398438 0.140625,0.5742188 0,0.66796874 -0.5039063,1.12499999 -1.2304688,1.12499999 -0.890625,0 -1.5117187,-0.5390625 -2.015625,-1.75781249 H 0.42065625 L 0.713625,0.12880469 h 0.22265625 c 0.0117188,-0.1875 0.12890625,-0.328125 0.28125005,-0.328125 0.1054687,0 0.28125,0.0351563 0.46875,0.10546875 0.375,0.15234375 0.7734375,0.234375 1.171875,0.234375 1.1484375,0 2.0273437,-0.78515625 2.0273437,-1.81640624 0,-0.8203125 -0.5390625,-1.4648438 -1.8632812,-2.1679688 C 1.97925,-4.4180703 1.557375,-4.8633828 1.557375,-5.4024453 c 0,-0.5390625 0.421875,-0.9257813 1.0429688,-0.9257813 0.4453125,0 0.8671875,0.1875 1.21875,0.5507813 0.3046875,0.3164062 0.4453125,0.5742187 0.5976562,1.1601562 h 0.2578125 z m 5.0478515,5.1796875 c -0.46875,0.70312499 -0.8320312,0.93749999 -1.40625,0.93749999 -0.9023437,0 -1.5351562,-0.79687499 -1.5351562,-1.93359379 0,-1.03125 0.5390625,-1.734375 1.3476562,-1.734375 0.3632813,0 0.4921875,0.1054688 0.5859375,0.46875 l 0.070312,0.2226563 c 0.070312,0.28125 0.2578125,0.4570312 0.46875,0.4570312 0.2578125,0 0.46875,-0.1875 0.46875,-0.4101562 0,-0.5625 -0.6914062,-1.03125 -1.5351562,-1.03125 -0.4804688,0 -0.9960938,0.1992187 -1.3945313,0.5625 -0.5039062,0.4335937 -0.7851562,1.1132812 -0.7851562,1.8984375 0,1.28906249 0.7851562,2.22656249 1.8984375,2.22656249 0.4453125,0 0.84375,-0.1640625 1.2070312,-0.46875 0.2695313,-0.24609375 0.4570313,-0.515625 0.75,-1.10156249 z m 0.5332032,-2.3320313 c 0.140625,-0.023437 0.234375,-0.035156 0.351562,-0.035156 0.246094,0 0.339844,0.1640625 0.339844,0.5976562 v 2.49609379 c 0,0.4921875 -0.07031,0.5625 -0.714844,0.6796875 v 0.1523437475 h 2.390625 V -0.15244531 c -0.679687,-0.0234375 -0.84375,-0.17578125 -0.84375,-0.75 V -3.1407266 c 0,-0.3164062 0.433594,-0.8085937 0.703125,-0.8085937 0.05859,0 0.140625,0.046875 0.257813,0.140625 0.152344,0.140625 0.269531,0.1992187 0.398437,0.1992187 0.234375,0 0.386719,-0.1640625 0.386719,-0.4453125 0,-0.328125 -0.210937,-0.5273437 -0.550781,-0.5273437 -0.421875,0 -0.703125,0.234375 -1.195313,0.9375 v -0.9140625 l -0.04687,-0.023437 c -0.527343,0.2226562 -0.890625,0.3515625 -1.476562,0.5390625 z m 7.652344,3.23437504 c -0.175782,0.140625 -0.292969,0.1875 -0.445313,0.1875 -0.222656,0 -0.292969,-0.140625 -0.292969,-0.57421874 v -1.9453125 c 0,-0.515625 -0.04687,-0.8085938 -0.199218,-1.0429688 -0.222657,-0.3632812 -0.644532,-0.5507812 -1.242188,-0.5507812 -0.925781,0 -1.664062,0.4921875 -1.664062,1.1132812 0,0.234375 0.199218,0.4335938 0.421875,0.4335938 0.246093,0 0.445312,-0.1992188 0.445312,-0.421875 0,-0.035156 0,-0.09375 -0.01172,-0.1640625 -0.02344,-0.082031 -0.03516,-0.1640625 -0.03516,-0.234375 0,-0.2695313 0.316406,-0.4921875 0.714844,-0.4921875 0.492187,0 0.761719,0.2929687 0.761719,0.8320312 v 0.609375 c -1.535157,0.609375 -1.699219,0.6914063 -2.132813,1.078125 -0.222656,0.1992188 -0.363281,0.5273438 -0.363281,0.86718754 0,0.62109375 0.445312,1.06640625 1.054687,1.06640625 0.433594,0 0.84375,-0.2109375 1.453125,-0.73828125 0.04687,0.52734375 0.222657,0.73828125 0.632813,0.73828125 0.339844,0 0.550781,-0.12890625 0.902344,-0.50390625 z M 16.13843,-1.2305703 c 0,0.31640624 -0.04687,0.39843749 -0.257813,0.52734374 -0.246094,0.140625 -0.515625,0.22265625 -0.726562,0.22265625 -0.351563,0 -0.632813,-0.33984375 -0.632813,-0.76171879 v -0.046875 c 0,-0.5859375 0.410156,-0.9375 1.617188,-1.3828125 z m 1.658203,-2.6835938 c 0.08203,-0.011719 0.152344,-0.011719 0.246094,-0.011719 0.339843,0 0.410156,0.1054687 0.410156,0.5742187 v 4.6523438 c 0,0.5273437 -0.117188,0.6328125 -0.703125,0.6914062 V 2.1561484 H 20.16382 V 1.9803672 c -0.75,-0.011719 -0.878906,-0.1171875 -0.878906,-0.75 v -1.55859376 c 0.351563,0.3281249975 0.585938,0.43359375 1.007813,0.43359375 1.171875,0 2.097656,-1.12499999 2.097656,-2.56640629 0,-1.2304687 -0.703125,-2.1210937 -1.664063,-2.1210937 -0.5625,0 -0.996093,0.2460937 -1.441406,0.7851562 v -0.7617187 l -0.05859,-0.023437 c -0.539062,0.2109375 -0.890625,0.3398437 -1.429687,0.5039062 z m 1.488281,0.5859375 c 0,-0.2929687 0.5625,-0.65625 1.019531,-0.65625 0.738282,0 1.21875,0.7617188 1.21875,1.9101563 0,1.11328124 -0.480468,1.85156249 -1.195312,1.85156249 -0.46875,0 -1.042969,-0.3515625 -1.042969,-0.65625 z m 7.467774,1.6992188 c -0.480469,0.74999999 -0.914063,1.04296874 -1.546875,1.04296874 -0.5625,0 -0.996094,-0.29296875 -1.289063,-0.85546874 -0.175781,-0.3867188 -0.246094,-0.7148438 -0.269531,-1.3125 h 3.070312 c -0.08203,-0.65625 -0.175781,-0.9375 -0.421875,-1.265625 -0.304687,-0.3515625 -0.761718,-0.5625 -1.277343,-0.5625 -0.503907,0 -0.972657,0.1757812 -1.347657,0.515625 -0.46875,0.4101562 -0.738281,1.1132812 -0.738281,1.9335937 0,1.37109379 0.714844,2.23828129 1.863281,2.23828129 0.949219,0 1.699219,-0.59765625 2.109375,-1.66406249 z m -3.082032,-1.453125 c 0.117188,-0.7734375 0.445313,-1.1367188 1.054688,-1.1367188 0.609375,0 0.855469,0.2695313 0.984375,1.1367188 z m 0,0"
       style="fill:#000000;fill-opacity:1;fill-rule:nonzero;stroke:none"
       aria-label="Scrape"
       transform="matrix(1.3333333,0,0,1.3333333,253.236,87.394667)" />
    <path
       id="path41"
       d="M 127.76047,48.47159 V 24.70761"
       style="fill:none;stroke:#000000;stroke-width:0.3985;stroke-linecap:butt;stroke-linejoin:miter;stroke-miterlimit:10;stroke-dasharray:none;stroke-opacity:1"
       transform="matrix(1.3333333,0,0,-1.3333333,161.63067,129.93733)" />
    <path
       id="path42"
       d="M 3.7613,0 C 3.2994,0.1127 1.26901,0.75136 0,1.44638 V -1.44638 C 1.26901,-0.75136 3.2994,-0.1127 3.7613,0 Z"
       style="fill:#000000;fill-opacity:1;fill-rule:nonzero;stroke:#000000;stroke-width:0.3985;stroke-linecap:butt;stroke-linejoin:miter;stroke-miterlimit:10;stroke-dasharray:none;stroke-opacity:1"
       transform="matrix(0,1.3333333,1.3333333,0,331.97796,96.993853)" />
    <path
       id="path43"
       d="m 6.5624766,-0.18760156 c -0.375,-0.0351563 -0.5742188,-0.12890625 -0.8671875,-0.46875 L 3.6445078,-3.1758828 c 0.6679688,-0.1289063 0.9726563,-0.2460938 1.3007813,-0.515625 0.3164062,-0.2578125 0.5039062,-0.6796875 0.5039062,-1.1484375 0,-0.4335938 -0.1289062,-0.796875 -0.3867187,-1.0898438 -0.375,-0.4101562 -1.2070313,-0.6679687 -2.1445313,-0.6679687 H 0.16403906 v 0.1875 c 0.75,0.082031 0.85546874,0.1992187 0.85546874,0.9023437 v 4.3125 c 0,0.83203129 -0.10546874,0.94921879 -0.85546874,1.00781254 V -1.015625e-4 H 2.9296641 V -0.18760156 C 2.1562266,-0.23447656 2.0273203,-0.36338281 2.0273203,-1.0899453 v -1.9570313 l 0.5625,-0.023437 2.3671875,3.0703125375 H 6.5624766 Z M 2.0273203,-5.8711953 c 0,-0.2695313 0.1171875,-0.3515625 0.515625,-0.3515625 1.2421875,0 1.8164063,0.421875 1.8164063,1.359375 0,0.5039062 -0.2109375,0.9140625 -0.5625,1.1132812 -0.4570313,0.2578125 -0.8085938,0.3164063 -1.7695313,0.328125 z m 8.6835937,4.2421875 c -0.480469,0.74999999 -0.9140624,1.04296874 -1.5468749,1.04296874 -0.5625,0 -0.9960938,-0.29296875 -1.2890625,-0.85546874 -0.1757813,-0.3867188 -0.2460938,-0.7148438 -0.2695313,-1.3125 h 3.0703127 c -0.08203,-0.65625 -0.175781,-0.9375 -0.421875,-1.265625 -0.3046877,-0.3515625 -0.7617189,-0.5625 -1.2773439,-0.5625 -0.5039063,0 -0.9726563,0.1757812 -1.3476563,0.515625 -0.46875,0.4101562 -0.7382812,1.1132812 -0.7382812,1.9335937 0,1.37109379 0.7148437,2.23828129 1.8632812,2.23828129 0.9492188,0 1.6992192,-0.59765625 2.1093752,-1.66406249 z m -3.0820312,-1.453125 c 0.1171875,-0.7734375 0.4453125,-1.1367188 1.0546875,-1.1367188 0.609375,0 0.8554688,0.2695313 0.984375,1.1367188 z m 6.5800782,-0.046875 -0.04687,-1.359375 h -0.105469 l -0.02344,0.023437 c -0.08203,0.070312 -0.09375,0.082031 -0.140625,0.082031 -0.05859,0 -0.152344,-0.023437 -0.269532,-0.070312 -0.210937,-0.082031 -0.433593,-0.1171875 -0.691406,-0.1171875 -0.785156,0 -1.359375,0.5039063 -1.359375,1.21875 0,0.5625 0.328125,0.9609375 1.171875,1.4414063 l 0.574219,0.328125 c 0.351562,0.1992187 0.515625,0.4335937 0.515625,0.74999999 0,0.43359375 -0.316406,0.71484375 -0.820313,0.71484375 -0.339843,0 -0.644531,-0.12890625 -0.84375,-0.3515625 -0.19922,-0.24609355 -0.29297,-0.48046855 -0.421877,-1.04296854 h -0.164062 v 1.54687499 h 0.128906 c 0.07031,-0.09375 0.117188,-0.1171875 0.234375,-0.1171875 0.08203,0 0.222656,0.0234375 0.457031,0.0820312475 0.28125,0.0585937525 0.550782,0.1054687525 0.726563,0.1054687525 0.761719,0 1.40625,-0.5859375 1.40625,-1.27734379 0,-0.5039062 -0.246094,-0.8320312 -0.84375,-1.1835937 L 12.62693,-3.0001016 c -0.28125,-0.1523437 -0.433594,-0.4101562 -0.433594,-0.6796875 0,-0.3984375 0.304687,-0.6679687 0.773437,-0.6679687 0.5625,0 0.855469,0.328125 1.089844,1.21875 z m 0.829101,-0.7851563 c 0.08203,-0.011719 0.152344,-0.011719 0.246094,-0.011719 0.339844,0 0.410156,0.1054687 0.410156,0.5742187 v 4.6523438 c 0,0.5273437 -0.117187,0.6328125 -0.703125,0.6914062 V 2.1561484 H 17.40525 V 1.9803672 c -0.75,-0.011719 -0.878906,-0.1171875 -0.878906,-0.75 v -1.55859376 c 0.351562,0.3281249975 0.585937,0.43359375 1.007812,0.43359375 1.171875,0 2.097656,-1.12499999 2.097656,-2.56640629 0,-1.2304687 -0.703125,-2.1210937 -1.664062,-2.1210937 -0.5625,0 -0.996094,0.2460937 -1.441406,0.7851562 v -0.7617187 l -0.05859,-0.023437 c -0.539063,0.2109375 -0.890625,0.3398437 -1.429688,0.5039062 z m 1.488282,0.5859375 c 0,-0.2929687 0.5625,-0.65625 1.019531,-0.65625 0.738281,0 1.21875,0.7617188 1.21875,1.9101563 0,1.11328124 -0.480469,1.85156249 -1.195313,1.85156249 -0.46875,0 -1.042968,-0.3515625 -1.042968,-0.65625 z m 5.894531,-1.2539062 c -1.300781,0 -2.203125,0.9609375 -2.203125,2.3320312 0,1.34765629 0.925781,2.35546879 2.179687,2.35546879 1.253907,0 2.214844,-1.06640625 2.214844,-2.43749999 0,-1.3007813 -0.925781,-2.25 -2.191406,-2.25 z m -0.140625,0.28125 c 0.84375,0 1.429687,0.9492187 1.429687,2.3203125 0,1.12499999 -0.445312,1.80468749 -1.195312,1.80468749 -0.386719,0 -0.761719,-0.24609375 -0.960938,-0.64453125 -0.28125,-0.51562504 -0.445312,-1.20703124 -0.445312,-1.92187504 0,-0.9492187 0.46875,-1.5585937 1.171875,-1.5585937 z m 2.789062,0.3398437 c 0.05859,-0.035156 0.152344,-0.046875 0.269532,-0.046875 0.269531,0 0.363281,0.1523438 0.363281,0.6445313 v 2.46093749 c 0,0.57421875 -0.105469,0.71484375 -0.621094,0.75 v 0.1523437475 h 2.121094 V -0.15244531 c -0.515625,-0.0351563 -0.667969,-0.15234375 -0.667969,-0.515625 V -3.4688516 c 0.480469,-0.4453125 0.703125,-0.5625 1.03125,-0.5625 0.492188,0 0.726563,0.3046875 0.726563,0.9609375 v 2.08593754 c 0,0.62109375 -0.128907,0.796875 -0.632813,0.83203125 v 0.1523437475 h 2.074219 V -0.15244531 C 29.252906,-0.19932031 29.124,-0.31650781 29.124,-0.80869531 V -3.0938516 c 0,-0.9257812 -0.433594,-1.4882812 -1.171875,-1.4882812 -0.457031,0 -0.761719,0.1640625 -1.441406,0.8085937 v -0.7851562 l -0.07031,-0.023437 c -0.492187,0.1757812 -0.832031,0.2929687 -1.371094,0.4453125 z m 7.959961,0.8320313 -0.04687,-1.359375 H 32.87693 l -0.02344,0.023437 c -0.08203,0.070312 -0.09375,0.082031 -0.140625,0.082031 -0.05859,0 -0.152344,-0.023437 -0.269531,-0.070312 -0.210938,-0.082031 -0.433594,-0.1171875 -0.691406,-0.1171875 -0.785157,0 -1.359375,0.5039063 -1.359375,1.21875 0,0.5625 0.328125,0.9609375 1.171875,1.4414063 l 0.574218,0.328125 c 0.351563,0.1992187 0.515625,0.4335937 0.515625,0.74999999 0,0.43359375 -0.316406,0.71484375 -0.820312,0.71484375 -0.339844,0 -0.644531,-0.12890625 -0.84375,-0.3515625 C 30.79099,-0.71494551 30.69724,-0.94932051 30.568334,-1.5118205 h -0.164063 v 1.54687499 h 0.128907 c 0.07031,-0.09375 0.117187,-0.1171875 0.234375,-0.1171875 0.08203,0 0.222656,0.0234375 0.457031,0.0820312475 0.28125,0.0585937525 0.550781,0.1054687525 0.726562,0.1054687525 0.761719,0 1.40625,-0.5859375 1.40625,-1.27734379 0,-0.5039062 -0.246093,-0.8320312 -0.84375,-1.1835937 L 31.44724,-3.0001018 c -0.28125,-0.1523437 -0.433594,-0.4101562 -0.433594,-0.6796875 0,-0.3984375 0.304688,-0.6679687 0.773438,-0.6679687 0.5625,0 0.855469,0.328125 1.089844,1.21875 z m 4.801758,1.5 c -0.480469,0.74999999 -0.914062,1.04296874 -1.546875,1.04296874 -0.5625,0 -0.996094,-0.29296875 -1.289062,-0.85546874 -0.175782,-0.3867188 -0.246094,-0.7148438 -0.269532,-1.3125 h 3.070313 c -0.08203,-0.65625 -0.175781,-0.9375 -0.421875,-1.265625 -0.304688,-0.3515625 -0.761719,-0.5625 -1.277344,-0.5625 -0.503906,0 -0.972656,0.1757812 -1.347656,0.515625 -0.46875,0.4101562 -0.738281,1.1132812 -0.738281,1.9335937 0,1.37109379 0.714843,2.23828129 1.863281,2.23828129 0.949219,0 1.699219,-0.59765625 2.109375,-1.66406249 z M 34.749,-3.0821328 c 0.117187,-0.7734375 0.445312,-1.1367188 1.054687,-1.1367188 0.609375,0 0.855469,0.2695313 0.984375,1.1367188 z m 0,0"
       style="fill:#000000;fill-opacity:1;fill-rule:nonzero;stroke:none"
       aria-label="Response"
       transform="matrix(1.3333333,0,0,1.3333333,336.668,87.394667)" />
    <path
       id="path44"
       d="m 141.97385,78.65877 h 52.11078"
       style="fill:none;stroke:#000000;stroke-width:0.3985;stroke-linecap:butt;stroke-linejoin:miter;stroke-miterlimit:10;stroke-dasharray:none;stroke-opacity:1"
       transform="matrix(1.3333333,0,0,-1.3333333,161.63067,129.93733)" />
    <path
       id="path45"
       d="M 3.7613,0 C 3.2994,0.1127 1.26901,0.75136 0,1.44638 V -1.44638 C 1.26901,-0.75136 3.2994,-0.1127 3.7613,0 Z"
       style="fill:#000000;fill-opacity:1;fill-rule:nonzero;stroke:#000000;stroke-width:0.3985;stroke-linecap:butt;stroke-linejoin:miter;stroke-miterlimit:10;stroke-dasharray:none;stroke-opacity:1"
       transform="matrix(1.3333333,0,0,-1.3333333,420.41017,25.058973)" />
    <path
       id="path46"
       d="m 2.0147422,-2.8940781 c 0.2578125,0.011719 0.421875,0.023437 0.6796875,0.023437 0.7851562,0 1.3242187,-0.09375 1.7460937,-0.3398438 0.5976563,-0.3164062 0.9609375,-0.9257812 0.9609375,-1.5820312 0,-0.421875 -0.140625,-0.796875 -0.4101562,-1.0898438 -0.3984375,-0.4335937 -1.265625,-0.7148437 -2.203125,-0.7148437 H 0.16317969 v 0.1875 c 0.73828125,0.082031 0.83203125,0.1875 0.83203125,0.9023437 v 4.3125 c 0,0.83203127 -0.0820313,0.93750002 -0.83203125,1.00781252 V 4.53125e-4 H 2.9522422 V -0.18704688 c -0.796875,-0.0351563 -0.9375,-0.17578125 -0.9375,-0.90234372 z m 0,-2.9882813 c 0,-0.2695312 0.070312,-0.3398437 0.3398437,-0.3398437 1.3359375,0 1.9570313,0.46875 1.9570313,1.4882812 0,0.9726563 -0.5859375,1.4648438 -1.734375,1.4648438 -0.1992188,0 -0.3398438,-0.011719 -0.5625,-0.023437 z m 3.5947266,1.9921875 c 0.140625,-0.023437 0.234375,-0.035156 0.3515625,-0.035156 0.2460937,0 0.3398437,0.1640625 0.3398437,0.5976562 v 2.49609377 c 0,0.4921875 -0.070312,0.5625 -0.7148437,0.6796875 V 4.53125e-4 h 2.390625 V -0.15189063 c -0.6796875,-0.0234375 -0.84375,-0.17578125 -0.84375,-0.75 V -3.1401719 c 0,-0.3164062 0.4335937,-0.8085937 0.703125,-0.8085937 0.058594,0 0.140625,0.046875 0.2578125,0.140625 0.1523437,0.140625 0.2695312,0.1992187 0.3984375,0.1992187 0.234375,0 0.3867187,-0.1640625 0.3867187,-0.4453125 0,-0.328125 -0.2109375,-0.5273437 -0.5507812,-0.5273437 -0.421875,0 -0.703125,0.234375 -1.1953125,0.9375 v -0.9140625 l -0.046875,-0.023437 c -0.5273438,0.2226562 -0.890625,0.3515625 -1.4765625,0.5390625 z m 5.7421872,-0.6914062 c -1.300781,0 -2.2031247,0.9609375 -2.2031247,2.3320312 0,1.34765627 0.9257817,2.35546877 2.1796877,2.35546877 1.253906,0 2.214844,-1.06640625 2.214844,-2.43749997 0,-1.3007813 -0.925782,-2.25 -2.191407,-2.25 z m -0.140625,0.28125 c 0.84375,0 1.429688,0.9492187 1.429688,2.3203125 0,1.12499997 -0.445313,1.80468747 -1.195313,1.80468747 -0.386718,0 -0.761718,-0.24609375 -0.960937,-0.64453125 -0.28125,-0.51562502 -0.445313,-1.20703122 -0.445313,-1.92187502 0,-0.9492187 0.46875,-1.5585937 1.171875,-1.5585937 z m 2.81543,0.3398437 c 0.128906,-0.035156 0.210937,-0.046875 0.316406,-0.046875 0.257813,0 0.351563,0.1640625 0.351563,0.6445313 v 2.51953122 c 0,0.5390625 -0.140625,0.6796875 -0.691407,0.69140625 V 4.53125e-4 h 2.203125 V -0.15189063 c -0.527343,-0.0117188 -0.667968,-0.12890625 -0.667968,-0.515625 V -3.4800156 c 0,-0.011719 0.07031,-0.1171875 0.140625,-0.1875 0.257812,-0.2226563 0.679687,-0.3984375 1.03125,-0.3984375 0.433593,0 0.65625,0.3515625 0.65625,1.0429687 v 2.16796877 c 0,0.55078125 -0.105469,0.66796875 -0.679688,0.703125 V 4.53125e-4 h 2.238281 V -0.15189063 c -0.574218,-0.0117188 -0.726562,-0.17578125 -0.726562,-0.796875 V -3.4565781 c 0.304687,-0.4335938 0.632812,-0.609375 1.089844,-0.609375 0.5625,0 0.75,0.2695312 0.75,1.1015625 v 2.09765622 c 0,0.5625 -0.08203,0.64453125 -0.65625,0.71484375 V 4.53125e-4 h 2.179687 V -0.15189063 l -0.257812,-0.0117188 c -0.304688,-0.0234375 -0.433594,-0.19921875 -0.433594,-0.59765625 V -2.8120469 c 0,-1.171875 -0.386719,-1.7695312 -1.148438,-1.7695312 -0.585937,0 -1.089843,0.2578125 -1.628906,0.8320312 -0.175781,-0.5625 -0.515625,-0.8320312 -1.054687,-0.8320312 -0.445313,0 -0.714844,0.140625 -1.546875,0.7617187 v -0.7382812 l -0.07031,-0.023437 c -0.503906,0.1875 -0.84375,0.2929687 -1.394531,0.4453125 z m 7.655273,0.046875 c 0.08203,-0.011719 0.152344,-0.011719 0.246094,-0.011719 0.339844,0 0.410156,0.1054687 0.410156,0.5742187 v 4.6523438 c 0,0.5273437 -0.117187,0.6328125 -0.703125,0.6914062 v 0.1640625 h 2.414063 V 1.9809219 c -0.75,-0.011719 -0.878906,-0.1171875 -0.878906,-0.75 v -1.55859378 c 0.351562,0.328125005 0.585937,0.43359375 1.007812,0.43359375 1.171875,0 2.097656,-1.12499997 2.097656,-2.56640627 0,-1.2304687 -0.703125,-2.1210937 -1.664062,-2.1210937 -0.5625,0 -0.996094,0.2460937 -1.441406,0.7851562 v -0.7617187 l -0.05859,-0.023437 c -0.539063,0.2109375 -0.890625,0.3398437 -1.429688,0.5039062 z m 1.488282,0.5859375 c 0,-0.2929687 0.5625,-0.65625 1.019531,-0.65625 0.738281,0 1.21875,0.7617188 1.21875,1.9101563 0,1.11328122 -0.480469,1.85156247 -1.195313,1.85156247 -0.46875,0 -1.042968,-0.3515625 -1.042968,-0.65625 z m 5.944336,-1.1601562 h -1.007813 v -1.1484375 c 0,-0.1054688 -0.01172,-0.1289063 -0.07031,-0.1289063 -0.07031,0.082031 -0.128907,0.1757813 -0.199219,0.28125 -0.375,0.5390625 -0.808594,1.0195313 -0.960938,1.0664063 -0.117187,0.070312 -0.175781,0.1289062 -0.175781,0.1875 0,0.023437 0.01172,0.046875 0.03516,0.070312 h 0.539063 v 3 c 0,0.83203122 0.292969,1.26562497 0.878906,1.26562497 0.492188,0 0.867188,-0.24609375 1.195313,-0.76171875 L 29.21982,-0.76126563 c -0.210937,0.24609375 -0.375,0.33984375 -0.597656,0.33984375 -0.363281,0 -0.515625,-0.26953125 -0.515625,-0.89062502 v -2.8476562 h 1.007813 z m 0,0"
       style="fill:#000000;fill-opacity:1;fill-rule:nonzero;stroke:none"
       aria-label="Prompt"
       transform="matrix(1.3333333,0,0,1.3333333,369.16133,15.585333)" />
    <path
       id="path47"
       d="M 198.66747,58.53398 H 146.5567"
       style="fill:none;stroke:#000000;stroke-width:0.3985;stroke-linecap:butt;stroke-linejoin:miter;stroke-miterlimit:10;stroke-dasharray:none;stroke-opacity:1"
       transform="matrix(1.3333333,0,0,-1.3333333,161.63067,129.93733)" />
    <path
       id="path48"
       d="M 3.7613,0 C 3.2994,0.1127 1.26901,0.75136 0,1.44638 V -1.44638 C 1.26901,-0.75136 3.2994,-0.1127 3.7613,0 Z"
       style="fill:#000000;fill-opacity:1;fill-rule:nonzero;stroke:#000000;stroke-width:0.3985;stroke-linecap:butt;stroke-linejoin:miter;stroke-miterlimit:10;stroke-dasharray:none;stroke-opacity:1"
       transform="matrix(-1.3333333,0,0,1.3333333,357.0396,51.892027)" />
    <path
       id="path49"
       d="m 6.5637188,-0.18885938 c -0.375,-0.0351563 -0.5742188,-0.12890625 -0.8671875,-0.46875 L 3.64575,-3.1771406 c 0.6679688,-0.1289063 0.9726563,-0.2460938 1.3007813,-0.515625 0.3164062,-0.2578125 0.5039062,-0.6796875 0.5039062,-1.1484375 0,-0.4335938 -0.1289062,-0.796875 -0.3867187,-1.0898438 -0.375,-0.4101562 -1.2070313,-0.6679687 -2.1445313,-0.6679687 H 0.16528125 v 0.1875 c 0.75,0.082031 0.85546875,0.1992187 0.85546875,0.9023437 v 4.3125 c 0,0.83203127 -0.10546875,0.94921877 -0.85546875,1.00781252 v 0.1875 H 2.9309063 v -0.1875 C 2.1574688,-0.23573438 2.0285625,-0.36464063 2.0285625,-1.0912031 v -1.9570313 l 0.5625,-0.023437 2.3671875,3.07031252 H 6.5637188 Z M 2.0285625,-5.8724531 c 0,-0.2695313 0.1171875,-0.3515625 0.515625,-0.3515625 1.2421875,0 1.8164063,0.421875 1.8164063,1.359375 0,0.5039062 -0.2109375,0.9140625 -0.5625,1.1132812 -0.4570313,0.2578125 -0.8085938,0.3164063 -1.7695313,0.328125 z m 8.6835935,4.2421875 c -0.480468,0.74999997 -0.9140622,1.04296872 -1.5468747,1.04296872 -0.5625,0 -0.9960938,-0.29296875 -1.2890625,-0.85546872 -0.1757813,-0.3867188 -0.2460938,-0.7148438 -0.2695313,-1.3125 H 10.677 c -0.08203,-0.65625 -0.175781,-0.9375 -0.421875,-1.265625 -0.3046875,-0.3515625 -0.7617187,-0.5625 -1.2773437,-0.5625 -0.5039063,0 -0.9726563,0.1757812 -1.3476563,0.515625 -0.46875,0.4101562 -0.7382812,1.1132812 -0.7382812,1.9335937 0,1.37109377 0.7148437,2.23828127 1.8632812,2.23828127 0.9492188,0 1.699219,-0.59765625 2.109375,-1.66406247 z m -3.082031,-1.453125 c 0.1171875,-0.7734375 0.4453125,-1.1367188 1.0546875,-1.1367188 0.609375,0 0.8554688,0.2695313 0.984375,1.1367188 z m 6.580078,-0.046875 -0.04687,-1.359375 h -0.105469 l -0.02344,0.023437 c -0.08203,0.070312 -0.09375,0.082031 -0.140625,0.082031 -0.05859,0 -0.152344,-0.023437 -0.269531,-0.070312 -0.210938,-0.082031 -0.433594,-0.1171875 -0.691407,-0.1171875 -0.785156,0 -1.359375,0.5039063 -1.359375,1.21875 0,0.5625 0.328125,0.9609375 1.171875,1.4414063 l 0.574219,0.328125 c 0.351563,0.1992187 0.515625,0.4335937 0.515625,0.74999997 0,0.43359375 -0.316406,0.71484375 -0.820312,0.71484375 -0.339844,0 -0.644532,-0.12890625 -0.84375,-0.3515625 -0.199219,-0.24609375 -0.292969,-0.48046875 -0.421875,-1.04296872 h -0.164063 v 1.54687497 h 0.128906 c 0.07031,-0.09375 0.117188,-0.1171875 0.234375,-0.1171875 0.08203,0 0.222657,0.0234375 0.457032,0.08203125 0.28125,0.05859375 0.550781,0.10546875 0.726562,0.10546875 0.761719,0 1.40625,-0.5859375 1.40625,-1.27734377 0,-0.5039062 -0.246094,-0.8320312 -0.84375,-1.1835937 l -1.066406,-0.6445313 c -0.28125,-0.1523437 -0.433594,-0.4101562 -0.433594,-0.6796875 0,-0.3984375 0.304688,-0.6679687 0.773438,-0.6679687 0.5625,0 0.855468,0.328125 1.089843,1.21875 z m 0.826172,-0.7851563 c 0.08203,-0.011719 0.152344,-0.011719 0.246094,-0.011719 0.339844,0 0.410156,0.1054687 0.410156,0.5742187 v 4.6523438 c 0,0.5273437 -0.117187,0.6328125 -0.703125,0.6914062 v 0.1640625 h 2.414063 V 1.9791094 c -0.75,-0.011719 -0.878907,-0.1171875 -0.878907,-0.75 v -1.55859378 c 0.351563,0.328125 0.585938,0.43359375 1.007813,0.43359375 1.171875,0 2.097656,-1.12499997 2.097656,-2.56640627 0,-1.2304687 -0.703125,-2.1210937 -1.664062,-2.1210937 -0.5625,0 -0.996094,0.2460937 -1.441407,0.7851562 v -0.7617187 l -0.05859,-0.023437 c -0.539063,0.2109375 -0.890625,0.3398437 -1.429688,0.5039062 z m 1.488281,0.5859375 c 0,-0.2929687 0.5625,-0.65625 1.019532,-0.65625 0.738281,0 1.21875,0.7617188 1.21875,1.9101563 0,1.11328122 -0.480469,1.85156247 -1.195313,1.85156247 -0.46875,0 -1.042969,-0.3515625 -1.042969,-0.65625 z m 5.897461,-1.2539062 c -1.300781,0 -2.203125,0.9609375 -2.203125,2.3320312 0,1.34765627 0.925781,2.35546877 2.179688,2.35546877 1.253906,0 2.214843,-1.06640625 2.214843,-2.43749997 0,-1.3007813 -0.925781,-2.25 -2.191406,-2.25 z m -0.140625,0.28125 c 0.84375,0 1.429688,0.9492187 1.429688,2.3203125 0,1.12499997 -0.445313,1.80468747 -1.195313,1.80468747 -0.386719,0 -0.761719,-0.24609375 -0.960937,-0.64453125 -0.28125,-0.51562502 -0.445313,-1.20703122 -0.445313,-1.92187502 0,-0.9492187 0.46875,-1.5585937 1.171875,-1.5585937 z m 2.789063,0.3398437 c 0.05859,-0.035156 0.152343,-0.046875 0.269531,-0.046875 0.269531,0 0.363281,0.1523438 0.363281,0.6445313 v 2.46093747 c 0,0.57421875 -0.105469,0.71484375 -0.621094,0.75 v 0.15234375 h 2.121094 v -0.15234375 c -0.515625,-0.0351563 -0.667969,-0.15234375 -0.667969,-0.515625 V -3.4701094 c 0.480469,-0.4453125 0.703125,-0.5625 1.03125,-0.5625 0.492188,0 0.726563,0.3046875 0.726563,0.9609375 v 2.08593752 c 0,0.62109375 -0.128906,0.796875 -0.632813,0.83203125 v 0.15234375 h 2.074219 v -0.15234375 c -0.480469,-0.046875 -0.609375,-0.1640625 -0.609375,-0.65625 V -3.0951094 c 0,-0.9257812 -0.433594,-1.4882812 -1.171875,-1.4882812 -0.457031,0 -0.761719,0.1640625 -1.441406,0.8085937 v -0.7851562 l -0.07031,-0.023437 c -0.492187,0.1757812 -0.832031,0.2929687 -1.371093,0.4453125 z m 7.957031,0.8320313 -0.04687,-1.359375 h -0.105469 l -0.02344,0.023437 c -0.08203,0.070312 -0.09375,0.082031 -0.140625,0.082031 -0.05859,0 -0.152344,-0.023437 -0.269532,-0.070312 -0.210937,-0.082031 -0.433593,-0.1171875 -0.691406,-0.1171875 -0.785156,0 -1.359375,0.5039063 -1.359375,1.21875 0,0.5625 0.328125,0.9609375 1.171875,1.4414063 l 0.574219,0.328125 c 0.351562,0.1992187 0.515625,0.4335937 0.515625,0.74999997 0,0.43359375 -0.316406,0.71484375 -0.820313,0.71484375 -0.339843,0 -0.644531,-0.12890625 -0.84375,-0.3515625 -0.199218,-0.24609375 -0.292968,-0.48046875 -0.421875,-1.04296872 h -0.164062 v 1.54687497 h 0.128906 c 0.07031,-0.09375 0.117188,-0.1171875 0.234375,-0.1171875 0.08203,0 0.222656,0.0234375 0.457031,0.08203125 0.28125,0.05859375 0.550782,0.10546875 0.726563,0.10546875 0.761719,0 1.40625,-0.5859375 1.40625,-1.27734377 0,-0.5039062 -0.246094,-0.8320312 -0.84375,-1.1835937 l -1.066406,-0.6445313 c -0.28125,-0.1523437 -0.433594,-0.4101562 -0.433594,-0.6796875 0,-0.3984375 0.304687,-0.6679687 0.773437,-0.6679687 0.5625,0 0.855469,0.328125 1.089844,1.21875 z m 4.801758,1.5 c -0.480469,0.74999997 -0.914063,1.04296872 -1.546875,1.04296872 -0.5625,0 -0.996094,-0.29296875 -1.289063,-0.85546872 -0.175781,-0.3867188 -0.246093,-0.7148438 -0.269531,-1.3125 h 3.070313 c -0.08203,-0.65625 -0.175782,-0.9375 -0.421875,-1.265625 -0.304688,-0.3515625 -0.761719,-0.5625 -1.277344,-0.5625 -0.503906,0 -0.972656,0.1757812 -1.347656,0.515625 -0.46875,0.4101562 -0.738282,1.1132812 -0.738282,1.9335937 0,1.37109377 0.714844,2.23828127 1.863282,2.23828127 0.949218,0 1.699218,-0.59765625 2.109375,-1.66406247 z m -3.082031,-1.453125 c 0.117187,-0.7734375 0.445312,-1.1367188 1.054687,-1.1367188 0.609375,0 0.855469,0.2695313 0.984375,1.1367188 z m 0,0"
       style="fill:#000000;fill-opacity:1;fill-rule:nonzero;stroke:none"
       aria-label="Response"
       transform="matrix(1.3333333,0,0,1.3333333,363.264,67.744)" />
    <path
       id="path50"
       d="m 2.0864375,-3.5734141 v -1.9335937 c 0,-0.7148438 0.1054687,-0.8320313 0.8671875,-0.9023438 v -0.1875 H 0.188 v 0.1875 c 0.7734375,0.070312 0.8789062,0.1875 0.8789062,0.9023438 v 4.3125 c 0,0.83203124 -0.1054687,0.96093749 -0.8789062,1.00781249 V 8.046875e-4 H 2.953625 V -0.18669531 c -0.7382813,-0.0585938 -0.8671875,-0.1875 -0.8671875,-0.90234379 v -2.0507812 h 3.0117187 v 1.9453125 c 0,0.83203124 -0.09375,0.96093749 -0.8789062,1.00781249 V 8.046875e-4 H 6.9965937 V -0.18669531 c -0.75,-0.0585938 -0.8789062,-0.1875 -0.8789062,-0.90234379 v -4.4179687 c 0,-0.7148438 0.1054687,-0.8320313 0.8789062,-0.9023438 v -0.1875 H 4.21925 v 0.1875 c 0.7734375,0.070312 0.8789062,0.1875 0.8789062,0.9023438 v 1.9335937 z m 9.8759765,3.07031254 h -0.04687 c -0.457031,0 -0.574219,-0.10546875 -0.574219,-0.56250004 v -3.421875 H 9.7710078 v 0.1757813 c 0.6210942,0.023437 0.7382812,0.1289062 0.7382812,0.6210937 v 2.34375 c 0,0.28125 -0.04687,0.42187504 -0.1875,0.52734379 -0.269531,0.22265625 -0.5742187,0.33984375 -0.8789062,0.33984375 -0.3867187,0 -0.703125,-0.33984375 -0.703125,-0.75000004 v -3.2578125 h -1.453125 v 0.140625 c 0.46875,0.035156 0.609375,0.1875 0.609375,0.6445313 v 2.5078125 c 0,0.78515624 0.4804688,1.30078124 1.2070313,1.30078124 0.375,0 0.7617187,-0.1640625 1.0312499,-0.43359375 l 0.421875,-0.43359375 v 0.83203125 l 0.04687,0.0234375 c 0.492188,-0.19921875 0.855469,-0.31640625 1.359375,-0.45703125 z m 0.398438,-3.45703124 c 0.128906,-0.035156 0.210937,-0.046875 0.316406,-0.046875 0.257812,0 0.351562,0.1640625 0.351562,0.6445312 v 2.51953129 c 0,0.5390625 -0.140625,0.6796875 -0.691406,0.69140625 V 8.046875e-4 h 2.203125 V -0.15153906 c -0.527344,-0.0117188 -0.667969,-0.12890625 -0.667969,-0.515625 V -3.4796641 c 0,-0.011719 0.07031,-0.1171875 0.140625,-0.1875 0.257813,-0.2226562 0.679688,-0.3984375 1.03125,-0.3984375 0.433594,0 0.65625,0.3515625 0.65625,1.0429688 v 2.16796874 c 0,0.55078125 -0.105468,0.66796875 -0.679687,0.703125 V 8.046875e-4 h 2.238281 V -0.15153906 c -0.574219,-0.0117188 -0.726562,-0.17578125 -0.726562,-0.796875 V -3.4562266 c 0.304687,-0.4335937 0.632812,-0.609375 1.089843,-0.609375 0.5625,0 0.75,0.2695313 0.75,1.1015625 v 2.09765629 c 0,0.5625 -0.08203,0.64453125 -0.65625,0.71484375 V 8.046875e-4 h 2.179688 V -0.15153906 l -0.257813,-0.0117188 c -0.304687,-0.0234375 -0.433593,-0.19921875 -0.433593,-0.59765625 V -2.8116953 c 0,-1.171875 -0.386719,-1.7695313 -1.148438,-1.7695313 -0.585937,0 -1.089844,0.2578125 -1.628906,0.8320313 -0.175781,-0.5625 -0.515625,-0.8320313 -1.054688,-0.8320313 -0.445312,0 -0.714843,0.140625 -1.546875,0.7617188 v -0.7382813 l -0.07031,-0.023437 c -0.503906,0.1875 -0.84375,0.2929688 -1.394531,0.4453125 z m 11.970703,3.30468749 c -0.175782,0.140625 -0.292969,0.1875 -0.445313,0.1875 -0.222656,0 -0.292969,-0.140625 -0.292969,-0.57421879 v -1.9453125 c 0,-0.515625 -0.04687,-0.8085937 -0.199218,-1.0429687 -0.222657,-0.3632813 -0.644532,-0.5507813 -1.242188,-0.5507813 -0.925781,0 -1.664062,0.4921875 -1.664062,1.1132813 0,0.234375 0.199218,0.4335937 0.421875,0.4335937 0.246093,0 0.445312,-0.1992187 0.445312,-0.421875 0,-0.035156 0,-0.09375 -0.01172,-0.1640625 -0.02344,-0.082031 -0.03516,-0.1640625 -0.03516,-0.234375 0,-0.2695312 0.316406,-0.4921875 0.714844,-0.4921875 0.492187,0 0.761719,0.2929688 0.761719,0.8320313 v 0.609375 c -1.535157,0.609375 -1.699219,0.6914062 -2.132813,1.078125 -0.222656,0.1992187 -0.363281,0.5273437 -0.363281,0.86718749 0,0.62109375 0.445312,1.06640625 1.054687,1.06640625 0.433594,0 0.84375,-0.2109375 1.453125,-0.73828125 0.04687,0.52734375 0.222657,0.73828125 0.632813,0.73828125 0.339844,0 0.550781,-0.12890625 0.902344,-0.50390625 z M 22.78468,-1.2296641 c 0,0.31640629 -0.04687,0.39843754 -0.257813,0.52734379 -0.246094,0.140625 -0.515625,0.22265625 -0.726562,0.22265625 -0.351563,0 -0.632813,-0.33984375 -0.632813,-0.76171874 v -0.046875 c 0,-0.5859375 0.410156,-0.9375 1.617188,-1.3828125 z m 1.728515,-2.7304687 c 0.05859,-0.035156 0.152344,-0.046875 0.269532,-0.046875 0.269531,0 0.363281,0.1523437 0.363281,0.6445312 v 2.46093754 c 0,0.57421875 -0.105469,0.71484375 -0.621094,0.75 V 8.046875e-4 h 2.121094 V -0.15153906 c -0.515625,-0.0351563 -0.667969,-0.15234375 -0.667969,-0.515625 V -3.4679453 c 0.480469,-0.4453125 0.703125,-0.5625 1.03125,-0.5625 0.492188,0 0.726563,0.3046875 0.726563,0.9609375 v 2.08593749 c 0,0.62109375 -0.128907,0.796875 -0.632813,0.83203125 V 8.046875e-4 h 2.074219 V -0.15153906 c -0.480469,-0.046875 -0.609375,-0.1640625 -0.609375,-0.65625 V -3.0929453 c 0,-0.9257813 -0.433594,-1.4882813 -1.171875,-1.4882813 -0.457031,0 -0.761719,0.1640625 -1.441406,0.8085938 v -0.7851563 l -0.07031,-0.023437 c -0.492187,0.1757813 -0.832031,0.2929688 -1.371094,0.4453125 z m 9.322266,1.0664062 c 0.257812,0.011719 0.421875,0.023437 0.679687,0.023437 0.785157,0 1.324219,-0.09375 1.746094,-0.3398437 0.597656,-0.3164063 0.960938,-0.9257813 0.960938,-1.5820313 0,-0.421875 -0.140625,-0.796875 -0.410157,-1.0898437 -0.398437,-0.4335938 -1.265625,-0.7148438 -2.203125,-0.7148438 h -2.625 v 0.1875 c 0.738282,0.082031 0.832032,0.1875 0.832032,0.9023438 v 4.3125 c 0,0.83203124 -0.08203,0.93749999 -0.832032,1.00781249 V 8.046875e-4 h 2.789063 V -0.18669531 c -0.796875,-0.0351563 -0.9375,-0.17578125 -0.9375,-0.90234379 z m 0,-2.9882812 c 0,-0.2695313 0.07031,-0.3398438 0.339844,-0.3398438 1.335937,0 1.957031,0.46875 1.957031,1.4882813 0,0.9726562 -0.585938,1.4648437 -1.734375,1.4648437 -0.199219,0 -0.339844,-0.011719 -0.5625,-0.023437 z m 7.78125,5.22656249 c -0.175781,0.140625 -0.292969,0.1875 -0.445313,0.1875 -0.222656,0 -0.292968,-0.140625 -0.292968,-0.57421879 v -1.9453125 c 0,-0.515625 -0.04687,-0.8085937 -0.199219,-1.0429687 -0.222656,-0.3632813 -0.644531,-0.5507813 -1.242188,-0.5507813 -0.925781,0 -1.664062,0.4921875 -1.664062,1.1132813 0,0.234375 0.199219,0.4335937 0.421875,0.4335937 0.246094,0 0.445312,-0.1992187 0.445312,-0.421875 0,-0.035156 0,-0.09375 -0.01172,-0.1640625 -0.02344,-0.082031 -0.03516,-0.1640625 -0.03516,-0.234375 0,-0.2695312 0.316407,-0.4921875 0.714844,-0.4921875 0.492188,0 0.761719,0.2929688 0.761719,0.8320313 v 0.609375 c -1.535156,0.609375 -1.699219,0.6914062 -2.132813,1.078125 -0.222656,0.1992187 -0.363281,0.5273437 -0.363281,0.86718749 0,0.62109375 0.445313,1.06640625 1.054688,1.06640625 0.433593,0 0.84375,-0.2109375 1.453125,-0.73828125 0.04687,0.52734375 0.222656,0.73828125 0.632812,0.73828125 0.339844,0 0.550781,-0.12890625 0.902344,-0.50390625 z M 40.069836,-1.2296641 c 0,0.31640629 -0.04687,0.39843754 -0.257813,0.52734379 -0.246093,0.140625 -0.515625,0.22265625 -0.726562,0.22265625 -0.351563,0 -0.632813,-0.33984375 -0.632813,-0.76171874 v -0.046875 c 0,-0.5859375 0.410157,-0.9375 1.617188,-1.3828125 z m 1.634766,-2.6601562 c 0.140625,-0.023437 0.234375,-0.035156 0.351562,-0.035156 0.246094,0 0.339844,0.1640625 0.339844,0.5976563 v 2.49609374 c 0,0.4921875 -0.07031,0.5625 -0.714844,0.6796875 V 8.046875e-4 h 2.390625 V -0.15153906 c -0.679687,-0.0234375 -0.84375,-0.17578125 -0.84375,-0.75 V -3.1398203 c 0,-0.3164063 0.433594,-0.8085938 0.703125,-0.8085938 0.05859,0 0.140625,0.046875 0.257813,0.140625 0.152343,0.140625 0.269531,0.1992188 0.398437,0.1992188 0.234375,0 0.386719,-0.1640625 0.386719,-0.4453125 0,-0.328125 -0.210938,-0.5273438 -0.550781,-0.5273438 -0.421875,0 -0.703125,0.234375 -1.195313,0.9375 v -0.9140625 l -0.04687,-0.023437 c -0.527344,0.2226563 -0.890625,0.3515625 -1.476562,0.5390625 z m 5.789062,-0.5976563 h -1.007812 v -1.1484375 c 0,-0.1054687 -0.01172,-0.1289062 -0.07031,-0.1289062 -0.07031,0.082031 -0.128906,0.1757812 -0.199219,0.28125 -0.375,0.5390625 -0.808593,1.0195312 -0.960937,1.0664062 -0.117188,0.070312 -0.175781,0.1289063 -0.175781,0.1875 0,0.023437 0.01172,0.046875 0.03516,0.070312 h 0.539062 v 3 c 0,0.83203129 0.292969,1.26562504 0.878907,1.26562504 0.492187,0 0.867187,-0.24609375 1.195312,-0.76171875 L 47.59914,-0.76091456 c -0.210938,0.24609375 -0.375,0.33984375 -0.597656,0.33984375 -0.363282,0 -0.515625,-0.26953125 -0.515625,-0.89062499 v -2.8476563 h 1.007812 z m 1.974609,-0.09375 -1.546875,0.5507813 v 0.140625 h 0.08203 c 0.117187,-0.023437 0.246093,-0.035156 0.339843,-0.035156 0.234375,0 0.328125,0.1640625 0.328125,0.5976563 v 2.3085937 c 0,0.71484379 -0.105468,0.83203129 -0.785156,0.86718754 V 8.046875e-4 h 2.355469 V -0.15153906 c -0.65625,-0.046875 -0.738281,-0.15234375 -0.738281,-0.86718754 v -3.5273437 z m -0.46875,-2.2265625 c -0.269531,0 -0.503906,0.234375 -0.503906,0.515625 0,0.28125 0.222656,0.5039063 0.503906,0.5039063 0.28125,0 0.515625,-0.2226563 0.515625,-0.5039063 0,-0.28125 -0.234375,-0.515625 -0.515625,-0.515625 z m 5.452149,5.25 c -0.46875,0.70312504 -0.832031,0.93750004 -1.40625,0.93750004 -0.902344,0 -1.535156,-0.79687504 -1.535156,-1.93359374 0,-1.03125 0.539062,-1.734375 1.347656,-1.734375 0.363281,0 0.492187,0.1054687 0.585937,0.46875 l 0.07031,0.2226562 c 0.07031,0.28125 0.257812,0.4570313 0.46875,0.4570313 0.257812,0 0.46875,-0.1875 0.46875,-0.4101563 0,-0.5625 -0.691406,-1.03125 -1.535156,-1.03125 -0.480469,0 -0.996094,0.1992188 -1.394532,0.5625 -0.503906,0.4335938 -0.785156,1.1132813 -0.785156,1.8984375 0,1.28906254 0.785156,2.22656254 1.898438,2.22656254 0.445312,0 0.84375,-0.1640625 1.207031,-0.46875 0.269531,-0.24609375 0.457031,-0.515625 0.75,-1.10156254 z m 2.208984,-3.0234375 -1.546875,0.5507813 v 0.140625 h 0.08203 c 0.117188,-0.023437 0.246094,-0.035156 0.339844,-0.035156 0.234375,0 0.328125,0.1640625 0.328125,0.5976563 v 2.3085937 c 0,0.71484379 -0.105469,0.83203129 -0.785156,0.86718754 V 8.046875e-4 h 2.355469 V -0.15153906 c -0.65625,-0.046875 -0.738282,-0.15234375 -0.738282,-0.86718754 v -3.5273437 z m -0.46875,-2.2265625 c -0.269531,0 -0.503906,0.234375 -0.503906,0.515625 0,0.28125 0.222656,0.5039063 0.503906,0.5039063 0.28125,0 0.515625,-0.2226563 0.515625,-0.5039063 0,-0.28125 -0.234375,-0.515625 -0.515625,-0.515625 z m 1.584961,2.8945313 c 0.08203,-0.011719 0.152344,-0.011719 0.246094,-0.011719 0.339844,0 0.410156,0.1054688 0.410156,0.5742188 v 4.6523437 c 0,0.5273438 -0.117187,0.6328125 -0.703125,0.6914063 v 0.1640625 h 2.414063 V 1.9812734 c -0.75,-0.011719 -0.878907,-0.1171875 -0.878907,-0.75 v -1.55859371 c 0.351563,0.3281249975 0.585938,0.43359375 1.007813,0.43359375 1.171875,0 2.097656,-1.12500004 2.097656,-2.56640624 0,-1.2304688 -0.703125,-2.1210938 -1.664062,-2.1210938 -0.5625,0 -0.996094,0.2460938 -1.441407,0.7851563 v -0.7617188 l -0.05859,-0.023437 c -0.539063,0.2109375 -0.890625,0.3398438 -1.429688,0.5039063 z m 1.488281,0.5859375 c 0,-0.2929688 0.5625,-0.65625 1.019532,-0.65625 0.738281,0 1.21875,0.7617187 1.21875,1.9101562 0,1.11328129 -0.480469,1.85156254 -1.195313,1.85156254 -0.46875,0 -1.042969,-0.3515625 -1.042969,-0.65625 z m 7.804688,2.67187499 c -0.175781,0.140625 -0.292969,0.1875 -0.445313,0.1875 -0.222656,0 -0.292968,-0.140625 -0.292968,-0.57421879 v -1.9453125 c 0,-0.515625 -0.04687,-0.8085937 -0.199219,-1.0429687 -0.222656,-0.3632813 -0.644531,-0.5507813 -1.242188,-0.5507813 -0.925781,0 -1.664062,0.4921875 -1.664062,1.1132813 0,0.234375 0.199219,0.4335937 0.421875,0.4335937 0.246094,0 0.445312,-0.1992187 0.445312,-0.421875 0,-0.035156 0,-0.09375 -0.01172,-0.1640625 -0.02344,-0.082031 -0.03516,-0.1640625 -0.03516,-0.234375 0,-0.2695312 0.316407,-0.4921875 0.714844,-0.4921875 0.492188,0 0.761719,0.2929688 0.761719,0.8320313 v 0.609375 c -1.535156,0.609375 -1.699219,0.6914062 -2.132813,1.078125 -0.222656,0.1992187 -0.363281,0.5273437 -0.363281,0.86718749 0,0.62109375 0.445313,1.06640625 1.054688,1.06640625 0.433593,0 0.84375,-0.2109375 1.453125,-0.73828125 0.04687,0.52734375 0.222656,0.73828125 0.632812,0.73828125 0.339844,0 0.550781,-0.12890625 0.902344,-0.50390625 z M 65.522961,-1.2296641 c 0,0.31640629 -0.04687,0.39843754 -0.257813,0.52734379 -0.246093,0.140625 -0.515625,0.22265625 -0.726562,0.22265625 -0.351563,0 -0.632813,-0.33984375 -0.632813,-0.76171874 v -0.046875 c 0,-0.5859375 0.410157,-0.9375 1.617188,-1.3828125 z m 1.728516,-2.7304687 c 0.05859,-0.035156 0.152343,-0.046875 0.269531,-0.046875 0.269531,0 0.363281,0.1523437 0.363281,0.6445312 v 2.46093754 c 0,0.57421875 -0.105469,0.71484375 -0.621094,0.75 V 8.046875e-4 h 2.121094 V -0.15153906 c -0.515625,-0.0351563 -0.667969,-0.15234375 -0.667969,-0.515625 V -3.4679453 c 0.480469,-0.4453125 0.703125,-0.5625 1.03125,-0.5625 0.492188,0 0.726563,0.3046875 0.726563,0.9609375 v 2.08593749 c 0,0.62109375 -0.128906,0.796875 -0.632813,0.83203125 V 8.046875e-4 h 2.074219 V -0.15153906 c -0.480469,-0.046875 -0.609375,-0.1640625 -0.609375,-0.65625 V -3.0929453 c 0,-0.9257813 -0.433594,-1.4882813 -1.171875,-1.4882813 -0.457031,0 -0.761719,0.1640625 -1.441406,0.8085938 v -0.7851563 l -0.07031,-0.023437 c -0.492187,0.1757813 -0.832031,0.2929688 -1.371093,0.4453125 z m 7.362304,-0.5273438 h -1.007812 v -1.1484375 c 0,-0.1054687 -0.01172,-0.1289062 -0.07031,-0.1289062 -0.07031,0.082031 -0.128906,0.1757812 -0.199219,0.28125 -0.375,0.5390625 -0.808593,1.0195312 -0.960937,1.0664062 -0.117188,0.070312 -0.175781,0.1289063 -0.175781,0.1875 0,0.023437 0.01172,0.046875 0.03516,0.070312 h 0.539062 v 3 c 0,0.83203129 0.292969,1.26562504 0.878907,1.26562504 0.492187,0 0.867187,-0.24609375 1.195312,-0.76171875 L 74.71925,-0.76091406 c -0.210938,0.24609375 -0.375,0.33984375 -0.597656,0.33984375 -0.363282,0 -0.515625,-0.26953125 -0.515625,-0.89062499 v -2.8476563 h 1.007812 z m 3.366211,1.359375 -0.04687,-1.359375 h -0.105469 l -0.02344,0.023437 c -0.08203,0.070312 -0.09375,0.082031 -0.140625,0.082031 -0.05859,0 -0.152344,-0.023437 -0.269531,-0.070312 -0.210938,-0.082031 -0.433594,-0.1171875 -0.691407,-0.1171875 -0.785156,0 -1.359375,0.5039062 -1.359375,1.21875 0,0.5625 0.328125,0.9609375 1.171875,1.4414062 l 0.574219,0.328125 c 0.351563,0.1992188 0.515625,0.4335938 0.515625,0.75000004 0,0.43359375 -0.316406,0.71484375 -0.820312,0.71484375 -0.339844,0 -0.644532,-0.12890625 -0.84375,-0.3515625 -0.199219,-0.24609375 -0.292969,-0.48046875 -0.421875,-1.04296879 H 75.354994 V 0.03596064 H 75.4839 c 0.07031,-0.09375 0.117188,-0.1171875 0.234375,-0.1171875 0.08203,0 0.222657,0.0234375 0.457032,0.0820312475 0.28125,0.0585937525 0.550781,0.1054687525 0.726562,0.1054687525 0.761719,0 1.40625,-0.5859375 1.40625,-1.27734374 0,-0.5039063 -0.246094,-0.8320313 -0.84375,-1.1835938 l -1.066406,-0.6445312 c -0.28125,-0.1523438 -0.433594,-0.4101563 -0.433594,-0.6796875 0,-0.3984375 0.304688,-0.6679688 0.773438,-0.6679688 0.5625,0 0.855468,0.328125 1.089843,1.21875 z m 0,0"
       style="fill:#000000;fill-opacity:1;fill-rule:nonzero;stroke:none"
       aria-label="HumanParticipants"
       transform="matrix(1.3333333,0,0,1.3333333,388.24933,175.56533)" />
    <path
       id="path51"
       d="m 6.5637656,-0.18669531 c -0.375,-0.0351563 -0.5742187,-0.12890625 -0.8671875,-0.46875 L 3.6457969,-3.1749766 c 0.6679687,-0.1289062 0.9726562,-0.2460937 1.3007812,-0.515625 0.3164063,-0.2578125 0.5039063,-0.6796875 0.5039063,-1.1484375 0,-0.4335937 -0.1289063,-0.796875 -0.3867188,-1.0898437 -0.375,-0.4101563 -1.2070312,-0.6679688 -2.1445312,-0.6679688 H 0.16532813 v 0.1875 c 0.75,0.082031 0.85546877,0.1992188 0.85546877,0.9023438 v 4.3125 c 0,0.83203124 -0.10546877,0.94921874 -0.85546877,1.00781249 V 8.046875e-4 H 2.9309531 V -0.18669531 C 2.1575156,-0.23357031 2.0286094,-0.36247656 2.0286094,-1.0890391 v -1.9570312 l 0.5625,-0.023437 2.3671875,3.0703124875 H 6.5637656 Z M 2.0286094,-5.8702891 c 0,-0.2695312 0.1171875,-0.3515625 0.515625,-0.3515625 1.2421875,0 1.8164062,0.421875 1.8164062,1.359375 0,0.5039063 -0.2109375,0.9140625 -0.5625,1.1132813 -0.4570312,0.2578125 -0.8085937,0.3164062 -1.7695312,0.328125 z m 8.6835936,4.2421875 c -0.480469,0.75000004 -0.9140624,1.04296879 -1.5468749,1.04296879 -0.5625,0 -0.9960937,-0.29296875 -1.2890625,-0.85546879 -0.1757812,-0.3867187 -0.2460937,-0.7148437 -0.2695312,-1.3125 h 3.0703126 c -0.08203,-0.65625 -0.175781,-0.9375 -0.421875,-1.265625 -0.3046876,-0.3515625 -0.7617189,-0.5625 -1.2773439,-0.5625 -0.5039062,0 -0.9726562,0.1757813 -1.3476562,0.515625 -0.46875,0.4101563 -0.7382813,1.1132813 -0.7382813,1.9335938 0,1.37109374 0.7148438,2.23828124 1.8632813,2.23828124 0.9492187,0 1.6992191,-0.59765625 2.1093751,-1.66406254 z m -3.0820311,-1.453125 c 0.1171875,-0.7734375 0.4453125,-1.1367187 1.0546875,-1.1367187 0.609375,0 0.8554687,0.2695312 0.984375,1.1367187 z m 6.5800781,-0.046875 -0.04687,-1.359375 h -0.105469 l -0.02344,0.023437 c -0.08203,0.070312 -0.09375,0.082031 -0.140625,0.082031 -0.05859,0 -0.152344,-0.023437 -0.269531,-0.070312 -0.210938,-0.082031 -0.433594,-0.1171875 -0.691407,-0.1171875 -0.785156,0 -1.359375,0.5039062 -1.359375,1.21875 0,0.5625 0.328125,0.9609375 1.171875,1.4414062 l 0.574219,0.328125 c 0.351563,0.1992188 0.515625,0.4335938 0.515625,0.75000004 0,0.43359375 -0.316406,0.71484375 -0.820312,0.71484375 -0.339844,0 -0.644532,-0.12890625 -0.84375,-0.3515625 -0.199219,-0.24609375 -0.292969,-0.48046875 -0.421875,-1.04296879 H 11.58525 v 1.54687504 h 0.128906 c 0.07031,-0.09375 0.117188,-0.1171875 0.234375,-0.1171875 0.08203,0 0.222657,0.0234375 0.457032,0.0820312475 0.28125,0.0585937525 0.550781,0.1054687525 0.726562,0.1054687525 0.761719,0 1.40625,-0.5859375 1.40625,-1.27734374 0,-0.5039063 -0.246094,-0.8320313 -0.84375,-1.1835938 l -1.066406,-0.6445312 c -0.28125,-0.1523438 -0.433594,-0.4101563 -0.433594,-0.6796875 0,-0.3984375 0.304688,-0.6679688 0.773438,-0.6679688 0.5625,0 0.855468,0.328125 1.089843,1.21875 z m 4.798828,1.5 c -0.480469,0.75000004 -0.914062,1.04296879 -1.546875,1.04296879 -0.5625,0 -0.996094,-0.29296875 -1.289062,-0.85546879 -0.175782,-0.3867187 -0.246094,-0.7148437 -0.269532,-1.3125 h 3.070313 c -0.08203,-0.65625 -0.175781,-0.9375 -0.421875,-1.265625 -0.304688,-0.3515625 -0.761719,-0.5625 -1.277344,-0.5625 -0.503906,0 -0.972656,0.1757813 -1.347656,0.515625 -0.46875,0.4101563 -0.738281,1.1132813 -0.738281,1.9335938 0,1.37109374 0.714843,2.23828124 1.863281,2.23828124 0.949219,0 1.699219,-0.59765625 2.109375,-1.66406254 z m -3.082031,-1.453125 c 0.117187,-0.7734375 0.445312,-1.1367187 1.054687,-1.1367187 0.609375,0 0.855469,0.2695312 0.984375,1.1367187 z m 7.845703,2.42578129 c -0.175781,0.140625 -0.292969,0.1875 -0.445312,0.1875 -0.222657,0 -0.292969,-0.140625 -0.292969,-0.57421879 v -1.9453125 c 0,-0.515625 -0.04687,-0.8085937 -0.199219,-1.0429687 -0.222656,-0.3632813 -0.644531,-0.5507813 -1.242187,-0.5507813 -0.925782,0 -1.664063,0.4921875 -1.664063,1.1132813 0,0.234375 0.199219,0.4335937 0.421875,0.4335937 0.246094,0 0.445313,-0.1992187 0.445313,-0.421875 0,-0.035156 0,-0.09375 -0.01172,-0.1640625 -0.02344,-0.082031 -0.03516,-0.1640625 -0.03516,-0.234375 0,-0.2695312 0.316406,-0.4921875 0.714843,-0.4921875 0.492188,0 0.761719,0.2929688 0.761719,0.8320313 v 0.609375 c -1.535156,0.609375 -1.699219,0.6914062 -2.132812,1.078125 -0.222657,0.1992187 -0.363282,0.5273437 -0.363282,0.86718749 0,0.62109375 0.445313,1.06640625 1.054688,1.06640625 0.433594,0 0.84375,-0.2109375 1.453125,-0.73828125 0.04687,0.52734375 0.222656,0.73828125 0.632812,0.73828125 0.339844,0 0.550782,-0.12890625 0.902344,-0.50390625 z M 22.225875,-1.2296641 c 0,0.31640629 -0.04687,0.39843754 -0.257812,0.52734379 -0.246094,0.140625 -0.515625,0.22265625 -0.726563,0.22265625 -0.351562,0 -0.632812,-0.33984375 -0.632812,-0.76171874 v -0.046875 c 0,-0.5859375 0.410156,-0.9375 1.617187,-1.3828125 z m 1.634766,-2.6601562 c 0.140625,-0.023437 0.234375,-0.035156 0.351562,-0.035156 0.246094,0 0.339844,0.1640625 0.339844,0.5976563 v 2.49609374 c 0,0.4921875 -0.07031,0.5625 -0.714844,0.6796875 V 8.046875e-4 h 2.390625 V -0.15153906 c -0.679687,-0.0234375 -0.84375,-0.17578125 -0.84375,-0.75 V -3.1398203 c 0,-0.3164063 0.433594,-0.8085938 0.703125,-0.8085938 0.05859,0 0.140625,0.046875 0.257813,0.140625 0.152343,0.140625 0.269531,0.1992188 0.398437,0.1992188 0.234375,0 0.386719,-0.1640625 0.386719,-0.4453125 0,-0.328125 -0.210938,-0.5273438 -0.550781,-0.5273438 -0.421875,0 -0.703125,0.234375 -1.195313,0.9375 v -0.9140625 l -0.04687,-0.023437 c -0.527344,0.2226563 -0.890625,0.3515625 -1.476562,0.5390625 z m 7.209961,2.3320312 c -0.46875,0.70312504 -0.832032,0.93750004 -1.40625,0.93750004 -0.902344,0 -1.535157,-0.79687504 -1.535157,-1.93359374 0,-1.03125 0.539063,-1.734375 1.347657,-1.734375 0.363281,0 0.492187,0.1054687 0.585937,0.46875 l 0.07031,0.2226562 c 0.07031,0.28125 0.257812,0.4570313 0.46875,0.4570313 0.257812,0 0.46875,-0.1875 0.46875,-0.4101563 0,-0.5625 -0.691407,-1.03125 -1.535157,-1.03125 -0.480468,0 -0.996093,0.1992188 -1.394531,0.5625 -0.503906,0.4335938 -0.785156,1.1132813 -0.785156,1.8984375 0,1.28906254 0.785156,2.22656254 1.898437,2.22656254 0.445313,0 0.84375,-0.1640625 1.207032,-0.46875 0.269531,-0.24609375 0.457031,-0.515625 0.75,-1.10156254 z m 2.018554,-1.8632812 c 0.421875,-0.4570313 0.726563,-0.6210938 1.113282,-0.6210938 0.492187,0 0.75,0.3515625 0.75,1.0546875 v 1.96875 c 0,0.67968754 -0.105469,0.80859379 -0.679688,0.86718754 V 8.046875e-4 h 2.109375 V -0.15153906 c -0.539062,-0.09375 -0.597656,-0.17578125 -0.597656,-0.86718754 v -1.9804687 c 0,-1.0429688 -0.421875,-1.5820313 -1.230469,-1.5820313 -0.585937,0 -0.996094,0.234375 -1.464844,0.8320313 v -3.0234375 l -0.04687,-0.035156 c -0.339843,0.1289063 -0.585937,0.1992188 -1.148437,0.3632813 l -0.257813,0.082031 v 0.1523438 c 0.03516,0 0.05859,0 0.117188,0 0.421875,0 0.503906,0.070312 0.503906,0.5039062 v 4.6875 c 0,0.70312504 -0.05859,0.78515629 -0.632812,0.86718754 V 8.046875e-4 h 2.144531 V -0.15153906 C 33.19463,-0.21013286 33.089161,-0.32732031 33.089161,-1.0187266 Z m 7.491211,1.7929687 c -0.480469,0.75000004 -0.914062,1.04296879 -1.546875,1.04296879 -0.5625,0 -0.996094,-0.29296875 -1.289062,-0.85546879 -0.175782,-0.3867187 -0.246094,-0.7148437 -0.269532,-1.3125 h 3.070313 c -0.08203,-0.65625 -0.175781,-0.9375 -0.421875,-1.265625 -0.304688,-0.3515625 -0.761719,-0.5625 -1.277344,-0.5625 -0.503906,0 -0.972656,0.1757813 -1.347656,0.515625 -0.46875,0.4101563 -0.738281,1.1132813 -0.738281,1.9335938 0,1.37109374 0.714843,2.23828124 1.863281,2.23828124 0.949219,0 1.699219,-0.59765625 2.109375,-1.66406254 z m -3.082031,-1.453125 c 0.117187,-0.7734375 0.445312,-1.1367187 1.054687,-1.1367187 0.609375,0 0.855469,0.2695312 0.984375,1.1367187 z m 3.506836,-0.8085937 c 0.140625,-0.023437 0.234375,-0.035156 0.351562,-0.035156 0.246094,0 0.339844,0.1640625 0.339844,0.5976563 v 2.49609374 c 0,0.4921875 -0.07031,0.5625 -0.714844,0.6796875 V 8.046875e-4 h 2.390625 V -0.15153906 c -0.679687,-0.0234375 -0.84375,-0.17578125 -0.84375,-0.75 V -3.1398203 c 0,-0.3164063 0.433594,-0.8085938 0.703125,-0.8085938 0.05859,0 0.140625,0.046875 0.257813,0.140625 0.152344,0.140625 0.269531,0.1992188 0.398437,0.1992188 0.234375,0 0.386719,-0.1640625 0.386719,-0.4453125 0,-0.328125 -0.210937,-0.5273438 -0.550781,-0.5273438 -0.421875,0 -0.703125,0.234375 -1.195313,0.9375 v -0.9140625 l -0.04687,-0.023437 c -0.527343,0.2226563 -0.890625,0.3515625 -1.476562,0.5390625 z m 0,0"
       style="fill:#000000;fill-opacity:1;fill-rule:nonzero;stroke:none"
       aria-label="Researcher"
       transform="matrix(1.3333333,0,0,1.3333333,4.428,175.56533)" />
  </g>
</svg>
